<svg xmlns="http://www.w3.org/2000/svg" width="17" height="17" viewBox="0 0 17 17">
  <defs>
    <style>
      .cls-1 {
        fill: #333;
        fill-rule: evenodd;
      }
    </style>
  </defs>
  <path id="Forma_1" data-name="Forma 1" class="cls-1" d="M260.475,338.483a5.593,5.593,0,0,0,2.692-4.817,5.667,5.667,0,0,0-11.334,0,5.593,5.593,0,0,0,2.692,4.817A8.763,8.763,0,0,0,249,345h1.417a7.26,7.26,0,0,1,14.166,0H266A8.533,8.533,0,0,0,260.475,338.483Zm-7.225-4.817a4.25,4.25,0,1,1,4.25,4.25A4.262,4.262,0,0,1,253.25,333.666Z" transform="translate(-249 -328)"/>
</svg>
