<svg xmlns="http://www.w3.org/2000/svg" xmlns:xlink="http://www.w3.org/1999/xlink" preserveAspectRatio="xMidYMid" width="11" height="15" viewBox="0 0 11 15">
  <defs>
    <style>

      .cls-2 {
        fill: #000000;
      }
    </style>
  </defs>
  <path d="M10.996,7.274 C11.022,7.063 10.934,6.843 10.756,6.733 C10.756,6.733 0.816,0.088 0.816,0.088 C0.656,-0.022 0.443,-0.031 0.275,0.070 C0.106,0.171 0.000,0.354 0.000,0.556 C0.000,0.556 0.000,12.305 0.000,12.305 C0.000,12.516 0.115,12.700 0.293,12.800 C0.470,12.892 0.692,12.874 0.851,12.745 C0.851,12.745 3.671,10.564 3.671,10.564 C3.671,10.564 6.252,14.743 6.252,14.743 C6.349,14.908 6.526,15.000 6.704,15.000 C6.792,15.000 6.890,14.973 6.970,14.927 C6.970,14.927 9.603,13.350 9.603,13.350 C9.728,13.277 9.816,13.149 9.852,13.002 C9.887,12.855 9.861,12.700 9.781,12.580 C9.781,12.580 7.378,8.667 7.378,8.667 C7.378,8.667 10.623,7.723 10.623,7.723 C10.818,7.659 10.969,7.485 10.996,7.274 ZM6.393,7.805 C6.234,7.851 6.101,7.980 6.039,8.135 C5.977,8.300 5.994,8.484 6.083,8.630 C6.083,8.630 8.566,12.681 8.566,12.681 C8.566,12.681 6.855,13.708 6.855,13.708 C6.855,13.708 4.256,9.473 4.256,9.473 C4.177,9.345 4.052,9.254 3.902,9.226 C3.866,9.217 3.840,9.217 3.804,9.217 C3.689,9.217 3.582,9.254 3.485,9.327 C3.485,9.327 1.055,11.206 1.055,11.206 C1.055,11.206 1.055,1.564 1.055,1.564 C1.055,1.564 9.196,6.999 9.196,6.999 C9.196,6.999 6.393,7.805 6.393,7.805 Z" id="path-1" class="cls-2" fill-rule="evenodd"/>
</svg>
