<svg xmlns="http://www.w3.org/2000/svg" width="16" height="16" viewBox="0 0 16 16">
  <defs>
    <style>
      .cls-1 {
        fill: #333;
        fill-rule: evenodd;
      }
    </style>
  </defs>
  <path id="edit.svg" class="cls-1" d="M805.677,871.908a0.369,0.369,0,0,1-.062.246l-7.2,7.2a0.3,0.3,0,0,1-.43,0l-2.216-2.277a0.3,0.3,0,0,1,0-.431l7.2-7.2a0.3,0.3,0,0,1,.246-0.061,0.375,0.375,0,0,1,.247.061l2.215,2.215A0.34,0.34,0,0,0,805.677,871.908ZM803.092,866a0.561,0.561,0,0,0-.431.184l-9.476,9.477a0.559,0.559,0,0,0-.185.431v5.292a0.581,0.581,0,0,0,.615.616h5.293a0.558,0.558,0,0,0,.43-0.185l9.477-9.477a0.593,0.593,0,0,0,0-.861l-5.292-5.293h0a0.558,0.558,0,0,0-.431-0.184h0Z" transform="translate(-793 -866)"/>
</svg>
