<svg xmlns="http://www.w3.org/2000/svg" width="16" height="9" viewBox="0 0 16 9">
  <defs>
    <style>
      .cls-1 {
        fill-rule: evenodd;
      }
    </style>
  </defs>
  <path id="Shape_1.svg_copy" data-name="Shape 1.svg copy" class="cls-1" d="M1077.89,520.806a0.5,0.5,0,0,0-.01-0.638c-2.42-2.766-5.04-4.169-7.77-4.169-4.64,0-7.87,4.021-8,4.19a0.5,0.5,0,0,0,.01.638c2.42,2.77,5.03,4.172,7.77,4.172C1074.53,525,1077.75,520.979,1077.89,520.806Zm-8,3.152c-2.28,0-4.5-1.166-6.61-3.461,0.83-.909,3.45-3.456,6.83-3.456,2.28,0,4.5,1.166,6.61,3.461C1075.89,521.41,1073.26,523.958,1069.89,523.958Zm0.11-6.1a2.652,2.652,0,1,0,2.84,2.645A2.758,2.758,0,0,0,1070,517.854Zm0,4.248a1.607,1.607,0,1,1,1.72-1.6A1.674,1.674,0,0,1,1070,522.1Z" transform="translate(-1062.03 -516)"/>
</svg>
