<svg xmlns="http://www.w3.org/2000/svg" width="16" height="16" viewBox="0 0 16 16">
  <defs>
    <style>
      .cls-1 {
        fill: #333;
        fill-rule: evenodd;
      }
    </style>
  </defs>
  <path id="Forma_1.svg" data-name="Forma 1.svg" class="cls-1" d="M742.946,5914.85a0.671,0.671,0,0,0,.429.18,0.565,0.565,0,0,0,.43-0.18l5.639-5.64a0.568,0.568,0,0,1,.43-0.18,0.576,0.576,0,0,1,.613.61,0.562,0.562,0,0,1-.184.43l-6.682,6.68a2.558,2.558,0,0,1-3.5,0,2.417,2.417,0,0,1-.735-1.72,2.313,2.313,0,0,1,.735-1.71l7.418-7.42a0.6,0.6,0,0,0,0-.86l-0.858-.86a0.6,0.6,0,0,0-.858,0l-7.418,7.42a4.87,4.87,0,0,0-1.41,3.5,4.966,4.966,0,0,0,1.41,3.49A4.859,4.859,0,0,0,741.9,5920a4.96,4.96,0,0,0,3.494-1.41l6.682-6.68a3.123,3.123,0,0,0,.92-2.15,3.035,3.035,0,0,0-3.065-3.06,2.852,2.852,0,0,0-2.146.92l-5.64,5.64a0.583,0.583,0,0,0,0,.85Z" transform="translate(-737 -5904)"/>
</svg>
