<svg xmlns="http://www.w3.org/2000/svg" width="20" height="20" viewBox="0 0 20 20">
  <defs>
    <style>
      .cls-1 {
        fill-rule: evenodd;
      }
    </style>
  </defs>
  <path id="Forma_1_copy" data-name="Forma 1 copy" class="cls-1" d="M335.48,589h-8.961A5.525,5.525,0,0,0,321,594.519v8.962A5.525,5.525,0,0,0,326.519,609h8.961a5.526,5.526,0,0,0,5.52-5.519v-8.962A5.526,5.526,0,0,0,335.48,589Zm3.746,14.481a3.75,3.75,0,0,1-3.745,3.745h-8.962a3.749,3.749,0,0,1-3.745-3.745v-8.962a3.749,3.749,0,0,1,3.745-3.745h8.961a3.749,3.749,0,0,1,3.745,3.745v8.962h0ZM331,593.847A5.153,5.153,0,1,0,336.153,599,5.16,5.16,0,0,0,331,593.847Zm0,8.532A3.379,3.379,0,1,1,334.379,599,3.383,3.383,0,0,1,331,602.379Zm5.37-10.037a1.3,1.3,0,1,0,.92.381A1.307,1.307,0,0,0,336.37,592.342Z" transform="translate(-321 -589)"/>
</svg>
