<svg xmlns="http://www.w3.org/2000/svg" width="16" height="16" viewBox="0 0 16 16">
  <defs>
    <style>
      .cls-1 {
        fill: #7c7b7a;
        fill-rule: evenodd;
      }
    </style>
  </defs>
  <path id="Forma_1" data-name="Forma 1" class="cls-1" d="M183.584,4095h-7.169a4.419,4.419,0,0,0-4.415,4.41v7.17a4.421,4.421,0,0,0,4.415,4.42h7.169a4.421,4.421,0,0,0,4.416-4.42v-7.17A4.419,4.419,0,0,0,183.584,4095Zm3,11.58a3,3,0,0,1-3,3h-7.169a3,3,0,0,1-3-3v-7.17a3,3,0,0,1,3-2.99h7.169a3,3,0,0,1,3,2.99v7.17h0Zm-6.58-7.7a4.12,4.12,0,1,0,4.123,4.12A4.128,4.128,0,0,0,180,4098.88Zm0,6.82a2.7,2.7,0,1,1,2.7-2.7A2.7,2.7,0,0,1,180,4105.7Zm4.3-8.03a1.05,1.05,0,0,0-1.041,1.04,1.039,1.039,0,0,0,.305.74,1.029,1.029,0,0,0,1.472,0,1.038,1.038,0,0,0,0-1.47A1.026,1.026,0,0,0,184.3,4097.67Z" transform="translate(-172 -4095)"/>
</svg>
