<svg xmlns="http://www.w3.org/2000/svg" width="16" height="16" viewBox="0 0 16 16">
  <defs>
    <style>
      .cls-1 {
        fill-rule: evenodd;
      }
    </style>
  </defs>
  <path class="cls-1" d="M264.742,2984.63a0.9,0.9,0,0,0-.619-0.26h-4.375a0.88,0.88,0,0,0-.873.88v0.74a0.9,0.9,0,0,0,.873.89h1.158a5.661,5.661,0,0,1-3.915,1.62,5.51,5.51,0,0,1-5.195-3.68,1.256,1.256,0,0,0-1.18-.84,1.165,1.165,0,0,0-.413.07,1.245,1.245,0,0,0-.713.64,1.231,1.231,0,0,0-.054.95,8,8,0,0,0,13.064,3.16v0.82a0.891,0.891,0,0,0,.885.88h0.741a0.881,0.881,0,0,0,.874-0.88v-4.37A0.881,0.881,0,0,0,264.742,2984.63Zm-0.177-4.27a8,8,0,0,0-13.065-3.16v-0.82a0.889,0.889,0,0,0-.884-0.88h-0.741a0.882,0.882,0,0,0-.875.88v4.37a0.845,0.845,0,0,0,.258.61,0.857,0.857,0,0,0,.62.26h4.374a0.871,0.871,0,0,0,.873-0.87v-0.74a0.889,0.889,0,0,0-.873-0.89H253.1a5.662,5.662,0,0,1,3.916-1.62,5.509,5.509,0,0,1,5.194,3.68,1.256,1.256,0,0,0,1.18.84,1.165,1.165,0,0,0,.413-0.07A1.252,1.252,0,0,0,264.565,2980.36Z" transform="translate(-249 -2975)"/>
</svg>
