<?xml version="1.0" encoding="UTF-8" standalone="no"?><!DOCTYPE svg PUBLIC "-//W3C//DTD SVG 1.1//EN" "http://www.w3.org/Graphics/SVG/1.1/DTD/svg11.dtd"><svg width="242px" height="26px" version="1.1" xmlns="http://www.w3.org/2000/svg" xmlns:xlink="http://www.w3.org/1999/xlink" xml:space="preserve" style="fill-rule:evenodd;clip-rule:evenodd;stroke-linejoin:round;stroke-miterlimit:1.41421;"><g><g><path d="M8.472,1.683c-0.341,0.127 -0.574,0.361 -0.701,0.703c-0.127,0.342 -0.191,0.889 -0.191,1.641l0,15.234c0,0.645 0.048,1.111 0.145,1.399c0.097,0.288 0.279,0.484 0.549,0.586c0.269,0.103 0.693,0.154 1.272,0.154l1.524,0c0.945,0 1.811,-0.278 2.599,-0.835c0.787,-0.557 1.448,-1.34 1.981,-2.351c0.534,-1.011 0.902,-2.18 1.105,-3.508l0.717,0c-0.061,0.683 -0.092,1.562 -0.092,2.636c0,1.924 0.071,3.506 0.213,4.746c-1.412,-0.058 -3.795,-0.088 -7.148,-0.088c-4.531,0 -7.92,0.03 -10.165,0.088l0,-0.6c0.691,-0.029 1.194,-0.108 1.509,-0.235c0.315,-0.127 0.531,-0.361 0.647,-0.703c0.117,-0.341 0.176,-0.888 0.176,-1.64l0,-14.883c0,-0.752 -0.059,-1.299 -0.176,-1.641c-0.116,-0.342 -0.332,-0.576 -0.647,-0.703c-0.315,-0.127 -0.818,-0.205 -1.509,-0.234l0,-0.601c1.046,0.059 2.687,0.088 4.923,0.088c2.113,0 3.749,-0.029 4.907,-0.088l0,0.601c-0.752,0.029 -1.298,0.107 -1.638,0.234Z" style="fill:#333;fill-rule:nonzero;"/><path d="M39.851,21.012c0.346,0.298 0.691,0.456 1.037,0.476l0,0.6c-1.25,-0.058 -2.83,-0.088 -4.74,-0.088c-2.134,0 -3.714,0.03 -4.74,0.088l0,-0.6c0.782,-0.029 1.343,-0.122 1.684,-0.279c0.34,-0.156 0.51,-0.429 0.51,-0.82c0,-0.303 -0.127,-0.776 -0.381,-1.421l-1.874,-4.922l-6.798,0l-0.823,2.066c-0.569,1.406 -0.853,2.519 -0.853,3.34c0,0.742 0.228,1.259 0.686,1.552c0.457,0.293 1.148,0.455 2.072,0.484l0,0.6c-1.402,-0.058 -2.692,-0.088 -3.871,-0.088c-0.955,0 -1.747,0.03 -2.377,0.088l0,-0.6c1.036,-0.166 1.93,-1.216 2.682,-3.15l7.118,-17.548c0.335,0.029 0.696,0.044 1.082,0.044c0.406,0 0.767,-0.015 1.082,-0.044l7.574,18.779c0.275,0.664 0.585,1.145 0.93,1.443Zm-11.827,-15.667l-3.231,8.101l6.325,0l-3.094,-8.101Z" style="fill:#333;fill-rule:nonzero;"/><path d="M62.894,20.77c0.33,0.273 0.764,0.513 1.303,0.718l0,0.6c-1.484,-0.058 -3.109,-0.088 -4.877,-0.088c-1.372,0 -2.693,0.03 -3.963,0.088l0,-0.6c0.59,-0.029 1.011,-0.088 1.265,-0.176c0.254,-0.088 0.381,-0.225 0.381,-0.41c0,-0.166 -0.112,-0.42 -0.335,-0.762l-4.527,-7.046c-0.284,-0.439 -0.531,-0.774 -0.739,-1.003c-0.208,-0.23 -0.419,-0.391 -0.632,-0.484c-0.214,-0.092 -0.483,-0.153 -0.808,-0.183l0,7.486c0,0.752 0.056,1.299 0.168,1.64c0.111,0.342 0.325,0.576 0.64,0.703c0.315,0.127 0.823,0.206 1.524,0.235l0,0.6c-1.118,-0.058 -2.688,-0.088 -4.71,-0.088c-2.235,0 -3.876,0.03 -4.922,0.088l0,-0.6c0.69,-0.029 1.193,-0.108 1.508,-0.235c0.315,-0.127 0.531,-0.361 0.648,-0.703c0.117,-0.341 0.175,-0.888 0.175,-1.64l0,-14.883c0,-0.752 -0.058,-1.299 -0.175,-1.641c-0.117,-0.342 -0.333,-0.576 -0.648,-0.703c-0.315,-0.127 -0.818,-0.205 -1.508,-0.234l0,-0.601c1.046,0.059 2.687,0.088 4.922,0.088c2.022,0 3.592,-0.029 4.71,-0.088l0,0.601c-0.701,0.029 -1.209,0.107 -1.524,0.234c-0.315,0.127 -0.529,0.361 -0.64,0.703c-0.112,0.342 -0.168,0.889 -0.168,1.641l0,6.753c0.823,-0.049 1.58,-0.293 2.271,-0.733c0.691,-0.439 1.473,-1.137 2.347,-2.094l1.844,-2.124c0.945,-1.075 1.417,-1.997 1.417,-2.769c0,-0.498 -0.2,-0.889 -0.602,-1.172c-0.401,-0.283 -0.967,-0.439 -1.699,-0.469l0,-0.571c1.534,0.059 3.079,0.088 4.633,0.088c1.199,0 2.175,-0.029 2.927,-0.088l0,0.571c-1.646,0.362 -3.155,1.324 -4.527,2.886l-3.902,4.453l7.27,10.899c0.305,0.468 0.623,0.84 0.953,1.113Z" style="fill:#333;fill-rule:nonzero;"/><path d="M86.737,20.77c0.33,0.273 0.764,0.513 1.303,0.718l0,0.6c-1.484,-0.058 -3.109,-0.088 -4.877,-0.088c-1.372,0 -2.693,0.03 -3.963,0.088l0,-0.6c0.589,-0.029 1.011,-0.088 1.265,-0.176c0.254,-0.088 0.381,-0.225 0.381,-0.41c0,-0.166 -0.112,-0.42 -0.335,-0.762l-4.527,-7.046c-0.284,-0.439 -0.531,-0.774 -0.739,-1.003c-0.208,-0.23 -0.419,-0.391 -0.633,-0.484c-0.213,-0.092 -0.482,-0.153 -0.807,-0.183l0,7.486c0,0.752 0.056,1.299 0.167,1.64c0.112,0.342 0.326,0.576 0.64,0.703c0.315,0.127 0.823,0.206 1.525,0.235l0,0.6c-1.118,-0.058 -2.688,-0.088 -4.71,-0.088c-2.235,0 -3.876,0.03 -4.923,0.088l0,-0.6c0.691,-0.029 1.194,-0.108 1.509,-0.235c0.315,-0.127 0.531,-0.361 0.648,-0.703c0.117,-0.341 0.175,-0.888 0.175,-1.64l0,-14.883c0,-0.752 -0.058,-1.299 -0.175,-1.641c-0.117,-0.342 -0.333,-0.576 -0.648,-0.703c-0.315,-0.127 -0.818,-0.205 -1.509,-0.234l0,-0.601c1.047,0.059 2.688,0.088 4.923,0.088c2.022,0 3.592,-0.029 4.71,-0.088l0,0.601c-0.702,0.029 -1.21,0.107 -1.525,0.234c-0.314,0.127 -0.528,0.361 -0.64,0.703c-0.111,0.342 -0.167,0.889 -0.167,1.641l0,6.753c0.823,-0.049 1.58,-0.293 2.271,-0.733c0.691,-0.439 1.473,-1.137 2.347,-2.094l1.844,-2.124c0.945,-1.075 1.417,-1.997 1.417,-2.769c0,-0.498 -0.2,-0.889 -0.602,-1.172c-0.401,-0.283 -0.968,-0.439 -1.699,-0.469l0,-0.571c1.534,0.059 3.079,0.088 4.633,0.088c1.199,0 2.174,-0.029 2.926,-0.088l0,0.571c-1.646,0.362 -3.155,1.324 -4.526,2.886l-3.902,4.453l7.27,10.899c0.305,0.468 0.622,0.84 0.953,1.113Z" style="fill:#333;fill-rule:nonzero;"/></g><g><path d="M173.431,22.103c-0.646,0.273 -1.42,0.41 -2.325,0.41c-1.199,0 -2.149,-0.244 -2.85,-0.732c-0.701,-0.489 -1.158,-1.328 -1.371,-2.52l-0.564,-2.988c-0.183,-0.967 -0.374,-1.746 -0.572,-2.336c-0.198,-0.591 -0.482,-1.06 -0.853,-1.407c-0.371,-0.346 -0.861,-0.52 -1.471,-0.52l-2.027,0l0,6.9c0,0.752 0.056,1.299 0.168,1.64c0.111,0.342 0.325,0.576 0.64,0.703c0.315,0.127 0.823,0.206 1.524,0.235l0,0.6c-1.108,-0.058 -2.678,-0.088 -4.71,-0.088c-2.225,0 -3.866,0.03 -4.922,0.088l0,-0.6c0.69,-0.029 1.193,-0.108 1.508,-0.235c0.315,-0.127 0.531,-0.361 0.648,-0.703c0.117,-0.341 0.175,-0.888 0.175,-1.64l0,-14.883c0,-0.752 -0.058,-1.299 -0.175,-1.641c-0.117,-0.342 -0.333,-0.576 -0.648,-0.703c-0.315,-0.127 -0.818,-0.205 -1.508,-0.234l0,-0.601c1.056,0.059 2.636,0.088 4.739,0.088c0.834,0 1.758,-0.01 2.774,-0.029c1.016,-0.02 1.722,-0.03 2.119,-0.03c2.865,0 5.024,0.452 6.477,1.355c1.453,0.904 2.18,2.19 2.18,3.86c0,0.889 -0.219,1.734 -0.656,2.534c-0.437,0.801 -1.178,1.497 -2.225,2.088c-1.046,0.591 -2.428,0.984 -4.145,1.179l0.03,0c1.26,0.107 2.294,0.313 3.102,0.615c0.807,0.303 1.44,0.725 1.897,1.267c0.457,0.542 0.777,1.233 0.96,2.073l0.717,3.091c0.172,0.811 0.368,1.372 0.586,1.685c0.219,0.312 0.526,0.468 0.922,0.468c0.244,-0.009 0.458,-0.068 0.64,-0.175c0.183,-0.108 0.387,-0.279 0.61,-0.513l0.427,0.366c-0.569,0.615 -1.176,1.06 -1.821,1.333Zm-7.956,-11.338c0.655,-0.43 1.107,-1.006 1.356,-1.728c0.249,-0.723 0.374,-1.592 0.374,-2.608c0,-1.64 -0.303,-2.881 -0.907,-3.72c-0.605,-0.84 -1.593,-1.26 -2.965,-1.26c-0.558,0 -0.972,0.071 -1.242,0.212c-0.269,0.142 -0.452,0.391 -0.548,0.747c-0.097,0.357 -0.145,0.896 -0.145,1.619l0,7.383l1.341,0c1.169,0 2.08,-0.215 2.736,-0.645Z" style="fill:#333;fill-rule:nonzero;"/><path d="M194.362,1.712c1.662,0.86 2.949,2.107 3.864,3.743c0.914,1.636 1.372,3.582 1.372,5.837c0,2.208 -0.47,4.161 -1.41,5.86c-0.94,1.699 -2.248,3.017 -3.925,3.955c-1.676,0.937 -3.581,1.406 -5.715,1.406c-2.205,0 -4.138,-0.429 -5.799,-1.289c-1.661,-0.859 -2.947,-2.107 -3.856,-3.743c-0.909,-1.635 -1.364,-3.581 -1.364,-5.837c0,-2.207 0.467,-4.16 1.402,-5.859c0.935,-1.7 2.24,-3.018 3.917,-3.955c1.676,-0.938 3.587,-1.407 5.73,-1.407c2.195,0 4.123,0.43 5.784,1.289Zm-8.931,0.594c-0.869,0.893 -1.539,2.138 -2.012,3.735c-0.472,1.597 -0.708,3.425 -0.708,5.486c0,2.08 0.264,3.911 0.792,5.493c0.529,1.582 1.245,2.803 2.149,3.662c0.904,0.86 1.91,1.289 3.018,1.289c1.148,0 2.156,-0.447 3.025,-1.34c0.869,-0.894 1.54,-2.139 2.012,-3.735c0.472,-1.597 0.709,-3.426 0.709,-5.486c0,-2.071 -0.264,-3.899 -0.793,-5.486c-0.528,-1.587 -1.247,-2.81 -2.156,-3.67c-0.91,-0.859 -1.913,-1.289 -3.01,-1.289c-1.149,0 -2.157,0.447 -3.026,1.341Z" style="fill:#333;fill-rule:nonzero;"/><path d="M211.514,1.683c-0.34,0.127 -0.574,0.361 -0.701,0.703c-0.127,0.342 -0.19,0.889 -0.19,1.641l0,15.234c0,0.645 0.048,1.111 0.145,1.399c0.096,0.288 0.279,0.484 0.548,0.586c0.27,0.103 0.694,0.154 1.273,0.154l1.524,0c0.945,0 1.811,-0.278 2.599,-0.835c0.787,-0.557 1.447,-1.34 1.981,-2.351c0.533,-1.011 0.902,-2.18 1.105,-3.508l0.716,0c-0.061,0.683 -0.091,1.562 -0.091,2.636c0,1.924 0.071,3.506 0.213,4.746c-1.412,-0.058 -3.795,-0.088 -7.148,-0.088c-4.532,0 -7.92,0.03 -10.166,0.088l0,-0.6c0.691,-0.029 1.194,-0.108 1.509,-0.235c0.315,-0.127 0.531,-0.361 0.648,-0.703c0.117,-0.341 0.175,-0.888 0.175,-1.64l0,-14.883c0,-0.752 -0.058,-1.299 -0.175,-1.641c-0.117,-0.342 -0.333,-0.576 -0.648,-0.703c-0.315,-0.127 -0.818,-0.205 -1.509,-0.234l0,-0.601c1.047,0.059 2.688,0.088 4.923,0.088c2.114,0 3.749,-0.029 4.908,-0.088l0,0.601c-0.752,0.029 -1.298,0.107 -1.639,0.234Z" style="fill:#333;fill-rule:nonzero;"/><path d="M232.141,1.683c-0.34,0.127 -0.574,0.361 -0.701,0.703c-0.127,0.342 -0.19,0.889 -0.19,1.641l0,15.234c0,0.645 0.048,1.111 0.145,1.399c0.096,0.288 0.279,0.484 0.548,0.586c0.269,0.103 0.694,0.154 1.273,0.154l1.524,0c0.945,0 1.811,-0.278 2.598,-0.835c0.788,-0.557 1.448,-1.34 1.982,-2.351c0.533,-1.011 0.902,-2.18 1.105,-3.508l0.716,0c-0.061,0.683 -0.091,1.562 -0.091,2.636c0,1.924 0.071,3.506 0.213,4.746c-1.412,-0.058 -3.795,-0.088 -7.148,-0.088c-4.532,0 -7.92,0.03 -10.166,0.088l0,-0.6c0.691,-0.029 1.194,-0.108 1.509,-0.235c0.315,-0.127 0.531,-0.361 0.648,-0.703c0.117,-0.341 0.175,-0.888 0.175,-1.64l0,-14.883c0,-0.752 -0.058,-1.299 -0.175,-1.641c-0.117,-0.342 -0.333,-0.576 -0.648,-0.703c-0.315,-0.127 -0.818,-0.205 -1.509,-0.234l0,-0.601c1.047,0.059 2.688,0.088 4.923,0.088c2.114,0 3.749,-0.029 4.908,-0.088l0,0.601c-0.752,0.029 -1.298,0.107 -1.639,0.234Z" style="fill:#333;fill-rule:nonzero;"/></g><path d="M132.07,1.111c0.783,0.371 1.399,0.902 1.848,1.594c0.449,0.692 0.673,1.508 0.673,2.449c0,1.084 -0.305,2.028 -0.915,2.83c-0.61,0.803 -1.422,1.447 -2.436,1.934c-0.829,0.377 -2.579,0.969 -5.251,1.777c1.325,0.531 2.301,1.298 2.928,2.299c0.628,1.002 0.942,2.156 0.942,3.462c0,1.405 -0.435,2.731 -1.305,3.976c-0.869,1.245 -2.121,2.249 -3.756,3.013c-1.636,0.763 -3.547,1.145 -5.735,1.145c-2.061,0 -3.964,-0.346 -5.709,-1.037c-1.744,-0.692 -3.138,-1.68 -4.18,-2.964c-1.042,-1.284 -1.563,-2.772 -1.563,-4.465c0,-1.495 0.386,-2.756 1.157,-3.786c0.772,-1.029 1.65,-1.812 2.634,-2.349c0.985,-0.537 1.898,-0.91 2.738,-1.12c-1.151,-0.476 -2.032,-1.107 -2.643,-1.893c-0.61,-0.786 -0.915,-1.616 -0.915,-2.49c0,-0.753 0.23,-1.453 0.691,-2.1c0.461,-0.648 1.14,-1.168 2.038,-1.561c0.898,-0.393 1.981,-0.589 3.247,-0.589c1.578,0 2.804,0.343 3.68,1.029c0.437,0.343 0.765,0.722 0.984,1.137c0.219,0.415 0.328,0.817 0.328,1.204c0,0.542 -0.201,0.979 -0.604,1.311c-0.403,0.333 -0.864,0.499 -1.382,0.499c-0.507,0 -0.941,-0.155 -1.304,-0.465c-0.363,-0.31 -0.544,-0.725 -0.544,-1.245c0,-0.487 0.175,-0.908 0.527,-1.262c0.351,-0.354 0.803,-0.554 1.355,-0.598c-0.103,-0.299 -0.403,-0.556 -0.898,-0.772c-0.495,-0.216 -1.094,-0.324 -1.796,-0.324c-1.232,0 -2.223,0.355 -2.971,1.063c-0.749,0.708 -1.123,1.704 -1.123,2.988c0,1.517 0.599,2.806 1.797,3.868c0.817,-0.132 1.548,-0.199 2.193,-0.199c0.438,0 0.783,0.067 1.037,0.199c0.253,0.133 0.38,0.327 0.38,0.581c0,0.2 -0.09,0.357 -0.268,0.474c-0.179,0.116 -0.418,0.174 -0.717,0.174c-0.345,0 -0.714,-0.061 -1.105,-0.183c-0.392,-0.121 -0.72,-0.24 -0.985,-0.357c-0.265,-0.116 -0.432,-0.185 -0.501,-0.207c-3.063,0.874 -4.594,2.734 -4.594,5.578c0,1.516 0.414,2.828 1.243,3.935c0.829,1.106 1.964,1.95 3.403,2.531c1.439,0.581 3.051,0.872 4.836,0.872c1.682,0 3.23,-0.252 4.647,-0.755c1.416,-0.504 2.545,-1.229 3.385,-2.175c0.841,-0.947 1.261,-2.045 1.261,-3.296c0,-0.885 -0.25,-1.795 -0.751,-2.731c-0.501,-0.935 -1.437,-1.668 -2.807,-2.199c-2.096,0.63 -3.455,1.062 -4.076,1.295c-0.991,0.365 -1.757,0.78 -2.298,1.245c-0.541,0.465 -0.812,1.035 -0.812,1.71c0,0.553 0.17,1.037 0.51,1.452c0.34,0.415 0.763,0.731 1.27,0.947c0.506,0.215 0.996,0.323 1.468,0.323c0.403,0 0.843,-0.066 1.321,-0.199c0.478,-0.133 0.746,-0.315 0.803,-0.548c-0.449,-0.077 -0.837,-0.254 -1.166,-0.531c-0.328,-0.277 -0.492,-0.675 -0.492,-1.195c0,-0.532 0.184,-0.96 0.553,-1.287c0.368,-0.326 0.829,-0.49 1.382,-0.49c0.564,0 1.019,0.169 1.364,0.507c0.346,0.337 0.518,0.783 0.518,1.336c0,0.609 -0.213,1.135 -0.639,1.577c-0.426,0.443 -0.964,0.778 -1.615,1.005c-0.65,0.226 -1.304,0.34 -1.96,0.34c-0.714,0 -1.408,-0.144 -2.082,-0.432c-0.673,-0.287 -1.226,-0.73 -1.658,-1.328c-0.432,-0.597 -0.647,-1.339 -0.647,-2.224c0,-1.151 0.405,-2.131 1.217,-2.939c0.812,-0.808 2.036,-1.483 3.671,-2.025c0.46,-0.144 1.35,-0.396 2.668,-0.756c1.319,-0.359 2.45,-0.683 3.395,-0.971c0.944,-0.288 1.802,-0.603 2.573,-0.946c1.117,-0.509 1.903,-1.027 2.358,-1.552c0.455,-0.526 0.682,-1.099 0.682,-1.719c0,-0.631 -0.19,-1.209 -0.57,-1.735c-0.38,-0.525 -0.884,-0.94 -1.511,-1.245c-0.628,-0.304 -1.304,-0.456 -2.03,-0.456c-0.598,0 -0.95,0.099 -1.053,0.299c0.311,0.155 0.552,0.379 0.725,0.672c0.173,0.293 0.259,0.595 0.259,0.905c0,0.465 -0.196,0.858 -0.587,1.179c-0.392,0.32 -0.858,0.481 -1.399,0.481c-0.507,0 -0.944,-0.147 -1.313,-0.44c-0.368,-0.293 -0.553,-0.711 -0.553,-1.253c0,-0.554 0.196,-1.008 0.588,-1.362c0.391,-0.354 0.883,-0.608 1.476,-0.763c0.594,-0.155 1.201,-0.233 1.823,-0.233c0.979,0 1.859,0.186 2.643,0.556Z" style="fill:#333;fill-rule:nonzero;"/></g></svg>