<?xml version="1.0" encoding="UTF-8" standalone="no"?><!DOCTYPE svg PUBLIC "-//W3C//DTD SVG 1.1//EN" "http://www.w3.org/Graphics/SVG/1.1/DTD/svg11.dtd"><svg width="181px" height="19px" version="1.1" xmlns="http://www.w3.org/2000/svg" xmlns:xlink="http://www.w3.org/1999/xlink" xml:space="preserve" style="fill-rule:evenodd;clip-rule:evenodd;stroke-linejoin:round;stroke-miterlimit:1.41421;"><g><g><path d="M6.153,0.946c-0.256,0.096 -0.431,0.272 -0.527,0.528c-0.095,0.257 -0.143,0.668 -0.143,1.233l0,11.442c0,0.484 0.036,0.834 0.109,1.05c0.072,0.217 0.21,0.363 0.412,0.44c0.202,0.078 0.521,0.116 0.956,0.116l1.145,0c0.709,0 1.36,-0.209 1.951,-0.627c0.592,-0.418 1.088,-1.007 1.488,-1.766c0.401,-0.759 0.678,-1.637 0.83,-2.635l0.538,0c-0.046,0.513 -0.068,1.174 -0.068,1.98c0,1.445 0.053,2.634 0.16,3.565c-1.061,-0.044 -2.85,-0.066 -5.369,-0.066c-3.403,0 -5.948,0.022 -7.635,0.066l0,-0.451c0.519,-0.022 0.897,-0.081 1.133,-0.176c0.237,-0.095 0.399,-0.271 0.487,-0.528c0.088,-0.257 0.131,-0.668 0.131,-1.232l0,-11.178c0,-0.565 -0.043,-0.976 -0.131,-1.233c-0.088,-0.256 -0.25,-0.432 -0.487,-0.528c-0.236,-0.095 -0.614,-0.154 -1.133,-0.176l0,-0.451c0.786,0.044 2.018,0.066 3.697,0.066c1.588,0 2.816,-0.022 3.686,-0.066l0,0.451c-0.564,0.022 -0.975,0.081 -1.23,0.176Z" style="fill:rgb(51,51,51);fill-rule:nonzero;"/><path d="M29.721,15.463c0.26,0.224 0.519,0.343 0.779,0.358l0,0.451c-0.939,-0.044 -2.126,-0.066 -3.561,-0.066c-1.602,0 -2.789,0.022 -3.56,0.066l0,-0.451c0.588,-0.022 1.01,-0.092 1.265,-0.209c0.256,-0.117 0.384,-0.323 0.384,-0.616c0,-0.228 -0.096,-0.583 -0.286,-1.067l-1.408,-3.697l-5.106,0l-0.618,1.551c-0.427,1.056 -0.641,1.893 -0.641,2.509c0,0.557 0.172,0.946 0.515,1.166c0.344,0.22 0.863,0.341 1.557,0.363l0,0.451c-1.053,-0.044 -2.022,-0.066 -2.908,-0.066c-0.717,0 -1.312,0.022 -1.785,0.066l0,-0.451c0.778,-0.125 1.45,-0.913 2.014,-2.365l5.346,-13.181c0.252,0.022 0.523,0.033 0.813,0.033c0.305,0 0.576,-0.011 0.813,-0.033l5.689,14.105c0.206,0.499 0.439,0.86 0.698,1.083Zm-8.883,-11.766l-2.427,6.084l4.751,0l-2.324,-6.084Z" style="fill:rgb(51,51,51);fill-rule:nonzero;"/><path d="M47.028,15.282c0.248,0.205 0.574,0.385 0.979,0.539l0,0.451c-1.115,-0.044 -2.336,-0.066 -3.663,-0.066c-1.031,0 -2.023,0.022 -2.977,0.066l0,-0.451c0.443,-0.022 0.76,-0.066 0.95,-0.132c0.191,-0.066 0.287,-0.169 0.287,-0.308c0,-0.125 -0.084,-0.315 -0.252,-0.572l-3.4,-5.292c-0.214,-0.33 -0.399,-0.581 -0.555,-0.754c-0.157,-0.172 -0.315,-0.293 -0.475,-0.363c-0.16,-0.07 -0.363,-0.115 -0.607,-0.137l0,5.622c0,0.564 0.042,0.975 0.126,1.232c0.084,0.257 0.244,0.433 0.481,0.528c0.236,0.095 0.618,0.154 1.144,0.176l0,0.451c-0.839,-0.044 -2.018,-0.066 -3.537,-0.066c-1.679,0 -2.911,0.022 -3.697,0.066l0,-0.451c0.519,-0.022 0.897,-0.081 1.133,-0.176c0.237,-0.095 0.399,-0.271 0.487,-0.528c0.087,-0.257 0.131,-0.668 0.131,-1.232l0,-11.178c0,-0.565 -0.044,-0.976 -0.131,-1.233c-0.088,-0.256 -0.25,-0.432 -0.487,-0.528c-0.236,-0.095 -0.614,-0.154 -1.133,-0.176l0,-0.451c0.786,0.044 2.018,0.066 3.697,0.066c1.519,0 2.698,-0.022 3.537,-0.066l0,0.451c-0.526,0.022 -0.908,0.081 -1.144,0.176c-0.237,0.096 -0.397,0.272 -0.481,0.528c-0.084,0.257 -0.126,0.668 -0.126,1.233l0,5.071c0.618,-0.036 1.187,-0.22 1.706,-0.55c0.519,-0.33 1.106,-0.854 1.763,-1.573l1.385,-1.595c0.709,-0.807 1.064,-1.5 1.064,-2.08c0,-0.374 -0.151,-0.667 -0.452,-0.88c-0.301,-0.212 -0.727,-0.33 -1.276,-0.352l0,-0.429c1.152,0.044 2.312,0.066 3.48,0.066c0.9,0 1.633,-0.022 2.197,-0.066l0,0.429c-1.236,0.272 -2.369,0.994 -3.399,2.168l-2.931,3.344l5.46,8.186c0.229,0.352 0.468,0.631 0.716,0.836Z" style="fill:rgb(51,51,51);fill-rule:nonzero;"/><path d="M64.936,15.282c0.248,0.205 0.574,0.385 0.978,0.539l0,0.451c-1.114,-0.044 -2.335,-0.066 -3.663,-0.066c-1.03,0 -2.022,0.022 -2.976,0.066l0,-0.451c0.443,-0.022 0.759,-0.066 0.95,-0.132c0.191,-0.066 0.286,-0.169 0.286,-0.308c0,-0.125 -0.084,-0.315 -0.251,-0.572l-3.4,-5.292c-0.214,-0.33 -0.399,-0.581 -0.555,-0.754c-0.157,-0.172 -0.315,-0.293 -0.475,-0.363c-0.161,-0.07 -0.363,-0.115 -0.607,-0.137l0,5.622c0,0.564 0.042,0.975 0.126,1.232c0.084,0.257 0.244,0.433 0.481,0.528c0.236,0.095 0.618,0.154 1.144,0.176l0,0.451c-0.839,-0.044 -2.018,-0.066 -3.537,-0.066c-1.679,0 -2.911,0.022 -3.697,0.066l0,-0.451c0.519,-0.022 0.896,-0.081 1.133,-0.176c0.237,-0.095 0.399,-0.271 0.486,-0.528c0.088,-0.257 0.132,-0.668 0.132,-1.232l0,-11.178c0,-0.565 -0.044,-0.976 -0.132,-1.233c-0.087,-0.256 -0.249,-0.432 -0.486,-0.528c-0.237,-0.095 -0.614,-0.154 -1.133,-0.176l0,-0.451c0.786,0.044 2.018,0.066 3.697,0.066c1.519,0 2.698,-0.022 3.537,-0.066l0,0.451c-0.526,0.022 -0.908,0.081 -1.144,0.176c-0.237,0.096 -0.397,0.272 -0.481,0.528c-0.084,0.257 -0.126,0.668 -0.126,1.233l0,5.071c0.618,-0.036 1.187,-0.22 1.705,-0.55c0.519,-0.33 1.107,-0.854 1.763,-1.573l1.385,-1.595c0.71,-0.807 1.065,-1.5 1.065,-2.08c0,-0.374 -0.151,-0.667 -0.452,-0.88c-0.302,-0.212 -0.727,-0.33 -1.277,-0.352l0,-0.429c1.153,0.044 2.313,0.066 3.48,0.066c0.901,0 1.633,-0.022 2.198,-0.066l0,0.429c-1.236,0.272 -2.369,0.994 -3.4,2.168l-2.93,3.344l5.46,8.186c0.229,0.352 0.468,0.631 0.716,0.836Z" style="fill:rgb(51,51,51);fill-rule:nonzero;"/></g><g><path d="M130.05,16.283c-0.485,0.205 -1.067,0.308 -1.746,0.308c-0.901,0 -1.614,-0.183 -2.141,-0.55c-0.526,-0.367 -0.87,-0.997 -1.03,-1.892l-0.424,-2.245c-0.137,-0.726 -0.28,-1.311 -0.429,-1.755c-0.149,-0.443 -0.362,-0.795 -0.641,-1.056c-0.278,-0.26 -0.647,-0.39 -1.104,-0.39l-1.523,0l0,5.182c0,0.564 0.042,0.975 0.126,1.232c0.084,0.257 0.244,0.433 0.481,0.528c0.236,0.095 0.618,0.154 1.144,0.176l0,0.451c-0.831,-0.044 -2.01,-0.066 -3.537,-0.066c-1.671,0 -2.903,0.022 -3.697,0.066l0,-0.451c0.519,-0.022 0.897,-0.081 1.133,-0.176c0.237,-0.095 0.399,-0.271 0.487,-0.528c0.087,-0.257 0.131,-0.668 0.131,-1.232l0,-11.178c0,-0.565 -0.044,-0.976 -0.131,-1.233c-0.088,-0.256 -0.25,-0.432 -0.487,-0.528c-0.236,-0.095 -0.614,-0.154 -1.133,-0.176l0,-0.451c0.794,0.044 1.98,0.066 3.56,0.066c0.626,0 1.32,-0.007 2.083,-0.022c0.763,-0.015 1.294,-0.022 1.591,-0.022c2.153,0 3.774,0.339 4.865,1.018c1.092,0.678 1.637,1.645 1.637,2.899c0,0.667 -0.164,1.302 -0.492,1.903c-0.328,0.602 -0.885,1.124 -1.671,1.568c-0.786,0.444 -1.824,0.739 -3.114,0.886l0.023,0c0.947,0.08 1.723,0.234 2.33,0.462c0.606,0.227 1.081,0.544 1.425,0.951c0.343,0.407 0.584,0.926 0.721,1.557l0.538,2.322c0.13,0.608 0.277,1.03 0.441,1.265c0.164,0.235 0.395,0.352 0.692,0.352c0.183,-0.007 0.344,-0.051 0.481,-0.132c0.137,-0.081 0.29,-0.209 0.458,-0.385l0.32,0.275c-0.427,0.462 -0.883,0.796 -1.367,1.001Zm-5.976,-8.516c0.492,-0.322 0.832,-0.755 1.019,-1.298c0.187,-0.543 0.28,-1.195 0.28,-1.958c0,-1.232 -0.227,-2.164 -0.681,-2.795c-0.454,-0.63 -1.196,-0.946 -2.226,-0.946c-0.42,0 -0.731,0.053 -0.933,0.16c-0.202,0.106 -0.34,0.293 -0.412,0.561c-0.073,0.268 -0.109,0.673 -0.109,1.216l0,5.545l1.007,0c0.878,0 1.563,-0.162 2.055,-0.485Z" style="fill:rgb(51,51,51);fill-rule:nonzero;"/><path d="M145.771,0.968c1.248,0.646 2.215,1.583 2.902,2.811c0.687,1.229 1.03,2.69 1.03,4.385c0,1.657 -0.353,3.124 -1.059,4.4c-0.706,1.277 -1.688,2.267 -2.947,2.971c-1.26,0.704 -2.691,1.056 -4.293,1.056c-1.656,0 -3.108,-0.323 -4.356,-0.968c-1.247,-0.645 -2.213,-1.582 -2.896,-2.811c-0.683,-1.229 -1.024,-2.69 -1.024,-4.384c0,-1.658 0.351,-3.125 1.053,-4.401c0.702,-1.276 1.682,-2.267 2.942,-2.971c1.259,-0.704 2.694,-1.056 4.304,-1.056c1.648,0 3.096,0.323 4.344,0.968Zm-6.708,0.446c-0.653,0.671 -1.156,1.606 -1.511,2.805c-0.355,1.2 -0.532,2.573 -0.532,4.121c0,1.562 0.198,2.937 0.595,4.125c0.397,1.189 0.935,2.105 1.614,2.751c0.679,0.645 1.435,0.968 2.266,0.968c0.863,0 1.62,-0.335 2.273,-1.007c0.652,-0.671 1.156,-1.606 1.511,-2.805c0.355,-1.199 0.532,-2.573 0.532,-4.12c0,-1.555 -0.198,-2.929 -0.595,-4.121c-0.397,-1.192 -0.937,-2.11 -1.62,-2.756c-0.683,-0.645 -1.437,-0.968 -2.261,-0.968c-0.862,0 -1.62,0.336 -2.272,1.007Z" style="fill:rgb(51,51,51);fill-rule:nonzero;"/><path d="M158.653,0.946c-0.255,0.096 -0.431,0.272 -0.526,0.528c-0.096,0.257 -0.143,0.668 -0.143,1.233l0,11.442c0,0.484 0.036,0.834 0.109,1.05c0.072,0.217 0.209,0.363 0.412,0.44c0.202,0.078 0.52,0.116 0.955,0.116l1.145,0c0.71,0 1.36,-0.209 1.952,-0.627c0.591,-0.418 1.087,-1.007 1.488,-1.766c0.401,-0.759 0.677,-1.637 0.83,-2.635l0.538,0c-0.046,0.513 -0.069,1.174 -0.069,1.98c0,1.445 0.054,2.634 0.16,3.565c-1.06,-0.044 -2.85,-0.066 -5.368,-0.066c-3.404,0 -5.949,0.022 -7.635,0.066l0,-0.451c0.519,-0.022 0.896,-0.081 1.133,-0.176c0.236,-0.095 0.399,-0.271 0.486,-0.528c0.088,-0.257 0.132,-0.668 0.132,-1.232l0,-11.178c0,-0.565 -0.044,-0.976 -0.132,-1.233c-0.087,-0.256 -0.25,-0.432 -0.486,-0.528c-0.237,-0.095 -0.614,-0.154 -1.133,-0.176l0,-0.451c0.786,0.044 2.018,0.066 3.697,0.066c1.587,0 2.816,-0.022 3.686,-0.066l0,0.451c-0.565,0.022 -0.975,0.081 -1.231,0.176Z" style="fill:rgb(51,51,51);fill-rule:nonzero;"/><path d="M174.146,0.946c-0.256,0.096 -0.431,0.272 -0.527,0.528c-0.095,0.257 -0.143,0.668 -0.143,1.233l0,11.442c0,0.484 0.036,0.834 0.109,1.05c0.072,0.217 0.21,0.363 0.412,0.44c0.202,0.078 0.521,0.116 0.956,0.116l1.145,0c0.709,0 1.36,-0.209 1.951,-0.627c0.592,-0.418 1.088,-1.007 1.488,-1.766c0.401,-0.759 0.678,-1.637 0.83,-2.635l0.538,0c-0.045,0.513 -0.068,1.174 -0.068,1.98c0,1.445 0.053,2.634 0.16,3.565c-1.061,-0.044 -2.85,-0.066 -5.369,-0.066c-3.403,0 -5.948,0.022 -7.635,0.066l0,-0.451c0.519,-0.022 0.897,-0.081 1.133,-0.176c0.237,-0.095 0.399,-0.271 0.487,-0.528c0.088,-0.257 0.131,-0.668 0.131,-1.232l0,-11.178c0,-0.565 -0.043,-0.976 -0.131,-1.233c-0.088,-0.256 -0.25,-0.432 -0.487,-0.528c-0.236,-0.095 -0.614,-0.154 -1.133,-0.176l0,-0.451c0.786,0.044 2.019,0.066 3.697,0.066c1.588,0 2.816,-0.022 3.686,-0.066l0,0.451c-0.564,0.022 -0.974,0.081 -1.23,0.176Z" style="fill:rgb(51,51,51);fill-rule:nonzero;"/></g><path d="M98.984,0.517c0.588,0.278 1.051,0.677 1.388,1.197c0.338,0.519 0.506,1.132 0.506,1.839c0,0.815 -0.229,1.523 -0.687,2.126c-0.459,0.603 -1.068,1.087 -1.829,1.453c-0.623,0.282 -1.938,0.727 -3.944,1.334c0.994,0.399 1.727,0.974 2.199,1.727c0.471,0.752 0.707,1.619 0.707,2.6c0,1.055 -0.327,2.051 -0.98,2.986c-0.653,0.935 -1.593,1.689 -2.822,2.263c-1.228,0.574 -2.663,0.86 -4.307,0.86c-1.548,0 -2.977,-0.259 -4.287,-0.779c-1.311,-0.52 -2.357,-1.261 -3.14,-2.226c-0.783,-0.964 -1.174,-2.082 -1.174,-3.354c0,-1.122 0.29,-2.07 0.869,-2.843c0.58,-0.773 1.239,-1.361 1.979,-1.764c0.739,-0.403 1.425,-0.684 2.056,-0.842c-0.865,-0.357 -1.527,-0.831 -1.985,-1.421c-0.458,-0.591 -0.688,-1.214 -0.688,-1.871c0,-0.565 0.173,-1.091 0.519,-1.577c0.346,-0.486 0.857,-0.877 1.531,-1.172c0.675,-0.295 1.488,-0.443 2.439,-0.443c1.185,0 2.106,0.258 2.763,0.773c0.329,0.258 0.576,0.543 0.74,0.854c0.164,0.312 0.246,0.614 0.246,0.904c0,0.408 -0.151,0.736 -0.454,0.986c-0.302,0.249 -0.648,0.374 -1.037,0.374c-0.381,0 -0.708,-0.117 -0.98,-0.35c-0.272,-0.232 -0.409,-0.544 -0.409,-0.935c0,-0.365 0.132,-0.681 0.396,-0.947c0.264,-0.266 0.603,-0.416 1.018,-0.449c-0.077,-0.225 -0.302,-0.418 -0.674,-0.58c-0.372,-0.162 -0.822,-0.243 -1.349,-0.243c-0.926,0 -1.67,0.266 -2.232,0.798c-0.562,0.532 -0.843,1.28 -0.843,2.244c0,1.139 0.45,2.108 1.349,2.906c0.614,-0.1 1.163,-0.15 1.648,-0.15c0.328,0 0.588,0.05 0.778,0.15c0.19,0.099 0.286,0.245 0.286,0.436c0,0.15 -0.067,0.268 -0.201,0.355c-0.135,0.088 -0.314,0.131 -0.539,0.131c-0.259,0 -0.536,-0.045 -0.83,-0.137c-0.294,-0.091 -0.541,-0.181 -0.74,-0.268c-0.199,-0.087 -0.324,-0.139 -0.376,-0.156c-2.3,0.657 -3.451,2.053 -3.451,4.19c0,1.139 0.312,2.124 0.934,2.955c0.623,0.831 1.475,1.465 2.556,1.901c1.081,0.437 2.292,0.655 3.633,0.655c1.262,0 2.426,-0.189 3.489,-0.567c1.064,-0.379 1.912,-0.923 2.543,-1.634c0.632,-0.71 0.947,-1.536 0.947,-2.475c0,-0.665 -0.188,-1.349 -0.564,-2.051c-0.376,-0.702 -1.079,-1.253 -2.108,-1.652c-1.574,0.474 -2.595,0.798 -3.062,0.972c-0.744,0.275 -1.319,0.586 -1.725,0.936c-0.407,0.349 -0.61,0.777 -0.61,1.284c0,0.416 0.127,0.779 0.383,1.091c0.255,0.312 0.573,0.549 0.953,0.711c0.381,0.162 0.748,0.243 1.103,0.243c0.303,0 0.633,-0.05 0.992,-0.15c0.359,-0.1 0.56,-0.237 0.604,-0.411c-0.338,-0.058 -0.63,-0.191 -0.876,-0.399c-0.247,-0.208 -0.37,-0.507 -0.37,-0.898c0,-0.399 0.138,-0.721 0.415,-0.966c0.277,-0.246 0.623,-0.368 1.038,-0.368c0.424,0 0.766,0.127 1.025,0.38c0.259,0.254 0.389,0.588 0.389,1.004c0,0.457 -0.16,0.852 -0.48,1.184c-0.32,0.333 -0.724,0.584 -1.213,0.755c-0.488,0.17 -0.979,0.255 -1.472,0.255c-0.537,0 -1.058,-0.108 -1.564,-0.324c-0.506,-0.216 -0.921,-0.548 -1.245,-0.997c-0.324,-0.449 -0.487,-1.006 -0.487,-1.671c0,-0.865 0.305,-1.6 0.915,-2.207c0.61,-0.607 1.529,-1.114 2.757,-1.521c0.346,-0.108 1.014,-0.298 2.004,-0.568c0.991,-0.27 1.84,-0.513 2.55,-0.729c0.709,-0.216 1.353,-0.453 1.933,-0.711c0.839,-0.382 1.429,-0.771 1.77,-1.166c0.342,-0.395 0.513,-0.825 0.513,-1.29c0,-0.474 -0.143,-0.909 -0.428,-1.303c-0.286,-0.395 -0.664,-0.707 -1.135,-0.936c-0.472,-0.228 -0.98,-0.342 -1.525,-0.342c-0.449,0 -0.713,0.074 -0.791,0.224c0.233,0.116 0.415,0.285 0.545,0.505c0.129,0.22 0.194,0.447 0.194,0.68c0,0.349 -0.147,0.644 -0.441,0.885c-0.294,0.241 -0.644,0.361 -1.051,0.361c-0.38,0 -0.709,-0.11 -0.986,-0.33c-0.276,-0.22 -0.415,-0.534 -0.415,-0.941c0,-0.416 0.147,-0.757 0.441,-1.023c0.294,-0.266 0.664,-0.457 1.11,-0.573c0.445,-0.117 0.901,-0.175 1.368,-0.175c0.735,0 1.397,0.139 1.985,0.418Z" style="fill:rgb(51,51,51);fill-rule:nonzero;"/></g></svg>