<?xml version="1.0" encoding="UTF-8" standalone="no"?><!DOCTYPE svg PUBLIC "-//W3C//DTD SVG 1.1//EN" "http://www.w3.org/Graphics/SVG/1.1/DTD/svg11.dtd"><svg width="195px" height="21px" version="1.1" xmlns="http://www.w3.org/2000/svg" xmlns:xlink="http://www.w3.org/1999/xlink" xml:space="preserve" style="fill-rule:evenodd;clip-rule:evenodd;stroke-linejoin:round;stroke-miterlimit:1.41421;"><g><g><path d="M6.596,1.014c-0.274,0.102 -0.463,0.291 -0.565,0.566c-0.102,0.276 -0.153,0.716 -0.153,1.321l0,12.266c0,0.519 0.039,0.894 0.116,1.126c0.078,0.232 0.225,0.39 0.442,0.472c0.217,0.083 0.558,0.124 1.025,0.124l1.227,0c0.761,0 1.458,-0.224 2.092,-0.672c0.634,-0.448 1.166,-1.079 1.595,-1.893c0.43,-0.814 0.726,-1.756 0.89,-2.825l0.577,0c-0.049,0.551 -0.074,1.258 -0.074,2.123c0,1.549 0.057,2.823 0.172,3.821c-1.137,-0.047 -3.056,-0.07 -5.755,-0.07c-3.649,0 -6.377,0.023 -8.185,0.07l0,-0.483c0.556,-0.024 0.961,-0.087 1.215,-0.189c0.253,-0.102 0.427,-0.291 0.521,-0.566c0.094,-0.275 0.141,-0.716 0.141,-1.321l0,-11.983c0,-0.605 -0.047,-1.045 -0.141,-1.321c-0.094,-0.275 -0.268,-0.464 -0.521,-0.566c-0.254,-0.102 -0.659,-0.165 -1.215,-0.188l0,-0.484c0.843,0.047 2.164,0.071 3.964,0.071c1.701,0 3.018,-0.024 3.951,-0.071l0,0.484c-0.606,0.023 -1.045,0.086 -1.319,0.188Z" style="fill:#fff;fill-rule:nonzero;"/><path d="M31.86,16.576c0.278,0.24 0.557,0.368 0.835,0.384l0,0.483c-1.007,-0.047 -2.279,-0.07 -3.817,-0.07c-1.718,0 -2.99,0.023 -3.816,0.07l0,-0.483c0.63,-0.024 1.082,-0.099 1.356,-0.224c0.274,-0.126 0.411,-0.346 0.411,-0.661c0,-0.244 -0.102,-0.625 -0.307,-1.144l-1.509,-3.963l-5.473,0l-0.662,1.663c-0.459,1.133 -0.688,2.029 -0.688,2.689c0,0.598 0.185,1.015 0.553,1.251c0.368,0.235 0.924,0.365 1.668,0.389l0,0.483c-1.128,-0.047 -2.167,-0.07 -3.116,-0.07c-0.769,0 -1.407,0.023 -1.915,0.07l0,-0.483c0.835,-0.134 1.555,-0.979 2.16,-2.536l5.731,-14.129c0.27,0.023 0.56,0.035 0.871,0.035c0.327,0 0.617,-0.012 0.871,-0.035l6.099,15.12c0.221,0.534 0.47,0.922 0.748,1.161Zm-9.522,-12.613l-2.601,6.522l5.092,0l-2.491,-6.522Z" style="fill:#fff;fill-rule:nonzero;"/><path d="M50.413,16.382c0.266,0.22 0.615,0.413 1.049,0.578l0,0.483c-1.195,-0.047 -2.503,-0.07 -3.927,-0.07c-1.104,0 -2.168,0.023 -3.19,0.07l0,-0.483c0.474,-0.024 0.814,-0.071 1.018,-0.142c0.205,-0.071 0.307,-0.181 0.307,-0.33c0,-0.134 -0.09,-0.338 -0.27,-0.613l-3.644,-5.673c-0.23,-0.354 -0.428,-0.623 -0.596,-0.808c-0.167,-0.185 -0.337,-0.315 -0.509,-0.389c-0.172,-0.075 -0.388,-0.124 -0.65,-0.148l0,6.027c0,0.605 0.045,1.046 0.135,1.321c0.09,0.275 0.262,0.464 0.515,0.566c0.254,0.102 0.663,0.165 1.227,0.189l0,0.483c-0.9,-0.047 -2.164,-0.07 -3.791,-0.07c-1.8,0 -3.121,0.023 -3.964,0.07l0,-0.483c0.556,-0.024 0.961,-0.087 1.215,-0.189c0.253,-0.102 0.427,-0.291 0.521,-0.566c0.094,-0.275 0.141,-0.716 0.141,-1.321l0,-11.983c0,-0.605 -0.047,-1.045 -0.141,-1.321c-0.094,-0.275 -0.268,-0.464 -0.521,-0.566c-0.254,-0.102 -0.659,-0.165 -1.215,-0.188l0,-0.484c0.843,0.047 2.164,0.071 3.964,0.071c1.627,0 2.891,-0.024 3.791,-0.071l0,0.484c-0.564,0.023 -0.973,0.086 -1.227,0.188c-0.253,0.102 -0.425,0.291 -0.515,0.566c-0.09,0.276 -0.135,0.716 -0.135,1.321l0,5.437c0.662,-0.039 1.272,-0.236 1.828,-0.589c0.556,-0.354 1.186,-0.916 1.89,-1.687l1.485,-1.71c0.76,-0.865 1.141,-1.608 1.141,-2.229c0,-0.401 -0.162,-0.716 -0.485,-0.944c-0.323,-0.228 -0.779,-0.353 -1.368,-0.377l0,-0.46c1.235,0.047 2.479,0.071 3.73,0.071c0.966,0 1.751,-0.024 2.356,-0.071l0,0.46c-1.325,0.291 -2.54,1.065 -3.644,2.323l-3.141,3.586l5.853,8.774c0.245,0.378 0.501,0.677 0.767,0.897Z" style="fill:#fff;fill-rule:nonzero;"/><path d="M69.609,16.382c0.266,0.22 0.616,0.413 1.05,0.578l0,0.483c-1.195,-0.047 -2.504,-0.07 -3.927,-0.07c-1.105,0 -2.168,0.023 -3.191,0.07l0,-0.483c0.475,-0.024 0.814,-0.071 1.019,-0.142c0.204,-0.071 0.307,-0.181 0.307,-0.33c0,-0.134 -0.09,-0.338 -0.27,-0.613l-3.645,-5.673c-0.229,-0.354 -0.427,-0.623 -0.595,-0.808c-0.168,-0.185 -0.337,-0.315 -0.509,-0.389c-0.172,-0.075 -0.389,-0.124 -0.651,-0.148l0,6.027c0,0.605 0.045,1.046 0.135,1.321c0.09,0.275 0.262,0.464 0.516,0.566c0.253,0.102 0.662,0.165 1.227,0.189l0,0.483c-0.9,-0.047 -2.164,-0.07 -3.792,-0.07c-1.8,0 -3.121,0.023 -3.963,0.07l0,-0.483c0.556,-0.024 0.961,-0.087 1.215,-0.189c0.253,-0.102 0.427,-0.291 0.521,-0.566c0.094,-0.275 0.141,-0.716 0.141,-1.321l0,-11.983c0,-0.605 -0.047,-1.045 -0.141,-1.321c-0.094,-0.275 -0.268,-0.464 -0.521,-0.566c-0.254,-0.102 -0.659,-0.165 -1.215,-0.188l0,-0.484c0.842,0.047 2.163,0.071 3.963,0.071c1.628,0 2.892,-0.024 3.792,-0.071l0,0.484c-0.565,0.023 -0.974,0.086 -1.227,0.188c-0.254,0.102 -0.426,0.291 -0.516,0.566c-0.09,0.276 -0.135,0.716 -0.135,1.321l0,5.437c0.663,-0.039 1.273,-0.236 1.829,-0.589c0.556,-0.354 1.186,-0.916 1.89,-1.687l1.484,-1.71c0.761,-0.865 1.142,-1.608 1.142,-2.229c0,-0.401 -0.162,-0.716 -0.485,-0.944c-0.323,-0.228 -0.779,-0.353 -1.368,-0.377l0,-0.46c1.235,0.047 2.478,0.071 3.73,0.071c0.965,0 1.751,-0.024 2.356,-0.071l0,0.46c-1.325,0.291 -2.54,1.065 -3.644,2.323l-3.142,3.586l5.853,8.774c0.246,0.378 0.501,0.677 0.767,0.897Z" style="fill:#fff;fill-rule:nonzero;"/></g><g><path d="M139.41,17.455c-0.52,0.22 -1.144,0.33 -1.872,0.33c-0.965,0 -1.73,-0.196 -2.294,-0.589c-0.565,-0.394 -0.933,-1.07 -1.105,-2.029l-0.454,-2.406c-0.147,-0.778 -0.3,-1.405 -0.46,-1.881c-0.159,-0.476 -0.388,-0.853 -0.687,-1.132c-0.299,-0.279 -0.693,-0.419 -1.184,-0.419l-1.632,0l0,5.555c0,0.605 0.045,1.046 0.135,1.321c0.09,0.275 0.262,0.464 0.515,0.566c0.254,0.102 0.663,0.165 1.227,0.189l0,0.483c-0.891,-0.047 -2.155,-0.07 -3.791,-0.07c-1.792,0 -3.113,0.023 -3.964,0.07l0,-0.483c0.556,-0.024 0.961,-0.087 1.215,-0.189c0.253,-0.102 0.427,-0.291 0.521,-0.566c0.094,-0.275 0.142,-0.716 0.142,-1.321l0,-11.983c0,-0.605 -0.048,-1.045 -0.142,-1.321c-0.094,-0.275 -0.268,-0.464 -0.521,-0.566c-0.254,-0.102 -0.659,-0.165 -1.215,-0.188l0,-0.484c0.851,0.047 2.123,0.071 3.816,0.071c0.671,0 1.416,-0.008 2.234,-0.024c0.818,-0.016 1.386,-0.023 1.705,-0.023c2.307,0 4.046,0.363 5.215,1.091c1.17,0.727 1.755,1.763 1.755,3.107c0,0.716 -0.176,1.396 -0.527,2.041c-0.352,0.644 -0.949,1.205 -1.792,1.68c-0.843,0.476 -1.955,0.792 -3.338,0.95l0.025,0c1.014,0.086 1.847,0.251 2.497,0.495c0.65,0.244 1.16,0.584 1.528,1.02c0.368,0.437 0.626,0.993 0.773,1.669l0.576,2.489c0.14,0.652 0.297,1.104 0.473,1.356c0.176,0.251 0.423,0.377 0.742,0.377c0.197,-0.008 0.368,-0.055 0.516,-0.141c0.147,-0.087 0.311,-0.224 0.491,-0.413l0.343,0.295c-0.458,0.495 -0.947,0.853 -1.466,1.073Zm-6.406,-9.128c0.528,-0.346 0.892,-0.81 1.092,-1.392c0.201,-0.582 0.301,-1.282 0.301,-2.099c0,-1.321 -0.243,-2.32 -0.73,-2.996c-0.487,-0.676 -1.282,-1.014 -2.387,-1.014c-0.45,0 -0.783,0.057 -1,0.171c-0.217,0.114 -0.364,0.314 -0.442,0.601c-0.077,0.287 -0.116,0.721 -0.116,1.303l0,5.944l1.08,0c0.94,0 1.675,-0.172 2.202,-0.518Z" style="fill:#fff;fill-rule:nonzero;"/><path d="M156.263,1.038c1.337,0.692 2.374,1.696 3.11,3.013c0.737,1.317 1.105,2.884 1.105,4.7c0,1.777 -0.379,3.35 -1.135,4.718c-0.757,1.368 -1.81,2.429 -3.16,3.184c-1.35,0.755 -2.884,1.132 -4.602,1.132c-1.775,0 -3.331,-0.346 -4.669,-1.038c-1.337,-0.691 -2.372,-1.696 -3.104,-3.013c-0.733,-1.317 -1.099,-2.884 -1.099,-4.7c0,-1.777 0.377,-3.349 1.129,-4.717c0.753,-1.369 1.804,-2.43 3.154,-3.185c1.35,-0.755 2.888,-1.132 4.614,-1.132c1.767,0 3.319,0.346 4.657,1.038Zm-7.191,0.478c-0.7,0.719 -1.239,1.721 -1.62,3.007c-0.38,1.286 -0.57,2.758 -0.57,4.417c0,1.675 0.212,3.149 0.638,4.423c0.425,1.273 1.002,2.256 1.73,2.948c0.728,0.692 1.538,1.038 2.429,1.038c0.925,0 1.737,-0.36 2.436,-1.079c0.7,-0.72 1.24,-1.722 1.62,-3.008c0.38,-1.285 0.571,-2.758 0.571,-4.417c0,-1.666 -0.213,-3.139 -0.638,-4.416c-0.426,-1.278 -1.005,-2.263 -1.737,-2.955c-0.732,-0.692 -1.54,-1.038 -2.423,-1.038c-0.925,0 -1.737,0.36 -2.436,1.08Z" style="fill:#fff;fill-rule:nonzero;"/><path d="M170.072,1.014c-0.274,0.102 -0.462,0.291 -0.564,0.566c-0.102,0.276 -0.153,0.716 -0.153,1.321l0,12.266c0,0.519 0.038,0.894 0.116,1.126c0.078,0.232 0.225,0.39 0.442,0.472c0.217,0.083 0.558,0.124 1.024,0.124l1.228,0c0.76,0 1.458,-0.224 2.092,-0.672c0.634,-0.448 1.165,-1.079 1.595,-1.893c0.429,-0.814 0.726,-1.756 0.89,-2.825l0.576,0c-0.049,0.551 -0.073,1.258 -0.073,2.123c0,1.549 0.057,2.823 0.172,3.821c-1.138,-0.047 -3.056,-0.07 -5.756,-0.07c-3.648,0 -6.376,0.023 -8.184,0.07l0,-0.483c0.556,-0.024 0.961,-0.087 1.215,-0.189c0.253,-0.102 0.427,-0.291 0.521,-0.566c0.094,-0.275 0.141,-0.716 0.141,-1.321l0,-11.983c0,-0.605 -0.047,-1.045 -0.141,-1.321c-0.094,-0.275 -0.268,-0.464 -0.521,-0.566c-0.254,-0.102 -0.659,-0.165 -1.215,-0.188l0,-0.484c0.842,0.047 2.164,0.071 3.963,0.071c1.702,0 3.019,-0.024 3.951,-0.071l0,0.484c-0.605,0.023 -1.045,0.086 -1.319,0.188Z" style="fill:#fff;fill-rule:nonzero;"/><path d="M186.68,1.014c-0.274,0.102 -0.462,0.291 -0.565,0.566c-0.102,0.276 -0.153,0.716 -0.153,1.321l0,12.266c0,0.519 0.039,0.894 0.117,1.126c0.077,0.232 0.225,0.39 0.441,0.472c0.217,0.083 0.559,0.124 1.025,0.124l1.227,0c0.761,0 1.458,-0.224 2.092,-0.672c0.634,-0.448 1.166,-1.079 1.595,-1.893c0.43,-0.814 0.726,-1.756 0.89,-2.825l0.577,0c-0.049,0.551 -0.074,1.258 -0.074,2.123c0,1.549 0.057,2.823 0.172,3.821c-1.137,-0.047 -3.055,-0.07 -5.755,-0.07c-3.649,0 -6.377,0.023 -8.185,0.07l0,-0.483c0.557,-0.024 0.961,-0.087 1.215,-0.189c0.254,-0.102 0.427,-0.291 0.522,-0.566c0.094,-0.275 0.141,-0.716 0.141,-1.321l0,-11.983c0,-0.605 -0.047,-1.045 -0.141,-1.321c-0.095,-0.275 -0.268,-0.464 -0.522,-0.566c-0.254,-0.102 -0.658,-0.165 -1.215,-0.188l0,-0.484c0.843,0.047 2.164,0.071 3.964,0.071c1.701,0 3.018,-0.024 3.951,-0.071l0,0.484c-0.605,0.023 -1.045,0.086 -1.319,0.188Z" style="fill:#fff;fill-rule:nonzero;"/></g><path d="M106.109,0.554c0.63,0.298 1.126,0.726 1.488,1.283c0.361,0.557 0.542,1.214 0.542,1.972c0,0.873 -0.246,1.633 -0.737,2.279c-0.492,0.646 -1.145,1.165 -1.961,1.557c-0.668,0.303 -2.077,0.78 -4.228,1.43c1.066,0.428 1.852,1.045 2.357,1.851c0.506,0.807 0.758,1.736 0.758,2.787c0,1.132 -0.35,2.199 -1.05,3.202c-0.7,1.002 -1.708,1.811 -3.024,2.426c-1.317,0.614 -2.856,0.922 -4.618,0.922c-1.659,0 -3.191,-0.279 -4.596,-0.836c-1.404,-0.557 -2.526,-1.352 -3.365,-2.386c-0.839,-1.033 -1.259,-2.232 -1.259,-3.595c0,-1.203 0.311,-2.219 0.932,-3.048c0.621,-0.828 1.328,-1.459 2.121,-1.891c0.792,-0.432 1.527,-0.733 2.204,-0.902c-0.927,-0.383 -1.636,-0.891 -2.128,-1.524c-0.491,-0.633 -0.737,-1.301 -0.737,-2.005c0,-0.606 0.186,-1.17 0.556,-1.691c0.371,-0.521 0.918,-0.94 1.641,-1.256c0.724,-0.317 1.595,-0.475 2.615,-0.475c1.27,0 2.258,0.276 2.962,0.829c0.352,0.276 0.617,0.581 0.793,0.915c0.176,0.335 0.264,0.658 0.264,0.97c0,0.436 -0.162,0.788 -0.487,1.056c-0.324,0.267 -0.695,0.401 -1.112,0.401c-0.408,0 -0.758,-0.125 -1.05,-0.375c-0.292,-0.249 -0.438,-0.583 -0.438,-1.002c0,-0.392 0.141,-0.731 0.424,-1.016c0.283,-0.285 0.647,-0.446 1.092,-0.481c-0.084,-0.241 -0.325,-0.448 -0.724,-0.622c-0.398,-0.174 -0.88,-0.26 -1.446,-0.26c-0.992,0 -1.789,0.285 -2.392,0.855c-0.603,0.57 -0.904,1.372 -0.904,2.406c0,1.221 0.482,2.259 1.446,3.114c0.659,-0.107 1.247,-0.16 1.767,-0.16c0.352,0 0.63,0.053 0.834,0.16c0.204,0.107 0.306,0.263 0.306,0.468c0,0.161 -0.072,0.288 -0.216,0.381c-0.143,0.094 -0.336,0.14 -0.577,0.14c-0.278,0 -0.574,-0.049 -0.89,-0.147c-0.315,-0.098 -0.579,-0.193 -0.792,-0.287c-0.214,-0.094 -0.348,-0.149 -0.404,-0.167c-2.466,0.704 -3.699,2.201 -3.699,4.491c0,1.221 0.334,2.277 1.001,3.168c0.668,0.891 1.581,1.571 2.74,2.038c1.159,0.468 2.457,0.702 3.894,0.702c1.354,0 2.601,-0.203 3.741,-0.608c1.14,-0.406 2.049,-0.989 2.726,-1.751c0.677,-0.762 1.015,-1.646 1.015,-2.653c0,-0.713 -0.202,-1.446 -0.605,-2.199c-0.403,-0.753 -1.157,-1.343 -2.26,-1.771c-1.687,0.508 -2.781,0.855 -3.282,1.042c-0.797,0.294 -1.414,0.629 -1.85,1.003c-0.435,0.374 -0.653,0.833 -0.653,1.377c0,0.445 0.137,0.835 0.41,1.169c0.274,0.334 0.614,0.588 1.022,0.762c0.408,0.174 0.802,0.261 1.182,0.261c0.325,0 0.679,-0.054 1.064,-0.161c0.385,-0.107 0.601,-0.254 0.647,-0.441c-0.362,-0.062 -0.675,-0.205 -0.939,-0.427c-0.264,-0.223 -0.396,-0.544 -0.396,-0.963c0,-0.428 0.148,-0.773 0.445,-1.036c0.297,-0.263 0.667,-0.394 1.112,-0.394c0.455,0 0.821,0.136 1.099,0.408c0.278,0.271 0.417,0.63 0.417,1.076c0,0.49 -0.171,0.913 -0.514,1.269c-0.343,0.357 -0.777,0.626 -1.301,0.809c-0.523,0.183 -1.05,0.274 -1.578,0.274c-0.575,0 -1.133,-0.116 -1.676,-0.347c-0.542,-0.232 -0.987,-0.589 -1.335,-1.07c-0.348,-0.481 -0.521,-1.078 -0.521,-1.791c0,-0.927 0.326,-1.715 0.98,-2.366c0.654,-0.65 1.639,-1.194 2.955,-1.63c0.371,-0.116 1.087,-0.319 2.149,-0.609c1.061,-0.289 1.972,-0.55 2.733,-0.782c0.76,-0.231 1.451,-0.485 2.072,-0.761c0.899,-0.41 1.532,-0.827 1.898,-1.25c0.366,-0.423 0.549,-0.885 0.549,-1.384c0,-0.508 -0.153,-0.973 -0.459,-1.396c-0.305,-0.424 -0.711,-0.758 -1.216,-1.003c-0.506,-0.245 -1.05,-0.368 -1.634,-0.368c-0.483,0 -0.765,0.081 -0.849,0.241c0.251,0.125 0.445,0.305 0.584,0.541c0.139,0.237 0.209,0.479 0.209,0.729c0,0.374 -0.158,0.691 -0.473,0.949c-0.315,0.258 -0.691,0.388 -1.126,0.388c-0.408,0 -0.761,-0.119 -1.057,-0.355c-0.297,-0.236 -0.445,-0.572 -0.445,-1.009c0,-0.445 0.157,-0.811 0.472,-1.096c0.316,-0.285 0.712,-0.49 1.19,-0.615c0.477,-0.124 0.966,-0.187 1.467,-0.187c0.788,0 1.497,0.149 2.128,0.448Z" style="fill:#fff;fill-rule:nonzero;"/></g></svg>