<?xml version="1.0" encoding="UTF-8" standalone="no"?><!DOCTYPE svg PUBLIC "-//W3C//DTD SVG 1.1//EN" "http://www.w3.org/Graphics/SVG/1.1/DTD/svg11.dtd"><svg width="11px" height="18px" version="1.1" xmlns="http://www.w3.org/2000/svg" xmlns:xlink="http://www.w3.org/1999/xlink" xml:space="preserve" style="fill-rule:evenodd;clip-rule:evenodd;stroke-linejoin:round;stroke-miterlimit:1.41421;"><g><path id="K" d="M9.375,8.775c-0.566,0 -1.699,1.133 -3.965,1.133c-2.266,0 -3.399,-1.133 -3.966,-1.133c-0.625,0 -1.133,0.508 -1.133,1.133c0,0.567 0.322,0.839 0.567,0.982c0.671,0.393 2.832,1.284 2.832,1.284l-2.407,3.081c0,0 -0.425,0.53 -0.425,0.885c0,0.625 0.507,1.133 1.133,1.133c0.578,0 0.84,-0.372 0.84,-0.372c0,0 2.555,-3.031 2.559,-3.027c0.004,-0.004 2.558,3.027 2.558,3.027c0,0 0.262,0.372 0.841,0.372c0.625,0 1.133,-0.508 1.133,-1.133c0,-0.355 -0.425,-0.885 -0.425,-0.885l-2.408,-3.081c0,0 2.162,-0.891 2.833,-1.284c0.245,-0.143 0.566,-0.415 0.566,-0.982c0,-0.625 -0.507,-1.133 -1.133,-1.133Z" style="fill:#333;fill-rule:nonzero;"/><path id="O" d="M5.41,0.277c-2.19,0 -3.966,1.776 -3.966,3.966c0,2.19 1.776,3.966 3.966,3.966c2.189,0 3.965,-1.776 3.965,-3.966c0,-2.19 -1.776,-3.966 -3.965,-3.966Zm0,5.949c-1.095,0 -1.983,-0.887 -1.983,-1.983c0,-1.095 0.888,-1.983 1.983,-1.983c1.094,0 1.983,0.888 1.983,1.983c0,1.096 -0.889,1.983 -1.983,1.983Z" style="fill:#333;fill-rule:nonzero;"/></g></svg>