<?xml version="1.0" encoding="utf-8"?>
<svg version="1.1" id="Layer_1" xmlns="http://www.w3.org/2000/svg" xmlns:xlink="http://www.w3.org/1999/xlink" x="0px" y="0px"
	 width="20px" height="20px" viewBox="0 0 20 20" style="enable-background:new 0 0 20 20;" xml:space="preserve">
<style type="text/css">
	.st0{fill:#333333;}
</style>
<g>
	<g>
		<g>
			<g>
				<path class="st0" d="M15.2,20c-1.4,0-5.3-0.5-10-5.1c-4-4-5.5-7.1-5.1-10.5C0.1,3.9,0.2,3.5,0.4,3c0.1-0.2,0.2-0.5,0.3-0.7
					L0.6,2.2L2,0.7C2.5,0.3,3.1,0,3.7,0l0,0C4.4,0,5,0.2,5.4,0.7l2.8,2.8c0.9,0.9,0.9,2.4,0,3.4L7.2,7.8c0.5,0.8,1.1,1.8,2.1,2.9
					c1.1,1.1,2.1,1.7,2.9,2.1l0.9-0.9c0.4-0.4,1-0.7,1.7-0.7c0.6,0,1.2,0.2,1.7,0.7l2.8,2.8c0.9,0.9,0.9,2.4,0,3.4l-1.4,1.4
					l-0.1-0.1c-0.2,0.1-0.5,0.3-0.7,0.4c-0.5,0.2-0.9,0.3-1.4,0.4C15.5,20,15.4,20,15.2,20z M2.7,2.6L2.6,2.7C2.4,3,2.2,3.3,2.1,3.7
					C2,4,1.9,4.3,1.9,4.6c-0.3,2.8,1,5.4,4.6,9c5,5,8.8,4.6,9,4.6c0.3,0,0.6-0.1,0.9-0.2c0.3-0.1,0.6-0.3,0.9-0.5l0.1-0.1l0.6-0.6
					c0.2-0.2,0.2-0.6,0-0.8l-2.8-2.8C15.1,13,15,13,14.9,13c-0.2,0-0.3,0.1-0.4,0.2l-1.9,1.9l-0.9-0.5c-0.9-0.5-2.2-1.2-3.6-2.6
					C6.7,10.6,6,9.3,5.5,8.3L5,7.5l1.9-1.9c0.2-0.2,0.2-0.6,0-0.8L4.1,2C4,1.8,3.8,1.8,3.7,1.8C3.6,1.8,3.4,1.9,3.3,2L2.7,2.6z"/>
			</g>
		</g>
	</g>
</g>
</svg>

