<?xml version="1.0" encoding="UTF-8" standalone="no"?><!DOCTYPE svg PUBLIC "-//W3C//DTD SVG 1.1//EN" "http://www.w3.org/Graphics/SVG/1.1/DTD/svg11.dtd"><svg width="25px" height="25px" version="1.1" xmlns="http://www.w3.org/2000/svg" xmlns:xlink="http://www.w3.org/1999/xlink" xml:space="preserve" style="fill-rule:evenodd;clip-rule:evenodd;stroke-linejoin:round;stroke-miterlimit:1.41421;"><g><circle cx="12.427" cy="12.525" r="12" style="fill:#333;"/><path d="M12.927,4.525c0.276,0 0.5,0.224 0.5,0.5l0,6.5l6.5,0c0.276,0 0.5,0.224 0.5,0.5l0,1c0,0.276 -0.224,0.5 -0.5,0.5l-6.5,0l0,6.5c0,0.276 -0.224,0.5 -0.5,0.5l-1,0c-0.276,0 -0.5,-0.224 -0.5,-0.5l0,-6.5l-6.5,0c-0.276,0 -0.5,-0.224 -0.5,-0.5l0,-1c0,-0.276 0.224,-0.5 0.5,-0.5l6.5,0l0,-6.5c0,-0.276 0.224,-0.5 0.5,-0.5l1,0Z" style="fill:#fff;"/></g></svg>