<svg xmlns="http://www.w3.org/2000/svg" width="16" height="16" viewBox="0 0 16 16">
  <defs>
    <style>
      .cls-1 {
        fill: #4a4a4a;
        fill-rule: evenodd;
      }
    </style>
  </defs>
  <path id="Forma_1" data-name="Forma 1" class="cls-1" d="M1289.59,694.717a0.591,0.591,0,0,0-.72.146l-1.36,1.344a8.008,8.008,0,0,0-2.55-1.63,7.877,7.877,0,0,0-6.06.057,8.112,8.112,0,0,0-2.56,1.709,8.273,8.273,0,0,0-1.71,2.552,7.964,7.964,0,0,0,0,6.209,8.266,8.266,0,0,0,1.71,2.553,8.11,8.11,0,0,0,2.56,1.708,7.748,7.748,0,0,0,3.1.636,7.994,7.994,0,0,0,3.41-.755,7.911,7.911,0,0,0,2.75-2.131,0.4,0.4,0,0,0,.08-0.234,0.329,0.329,0,0,0-.1-0.214l-1.43-1.438a0.4,0.4,0,0,0-.26-0.093,0.328,0.328,0,0,0-.24.125,5.3,5.3,0,0,1-6.28,1.651,5.423,5.423,0,0,1-1.7-1.141,5.327,5.327,0,0,1-1.14-1.7,5.3,5.3,0,0,1,0-4.136,5.338,5.338,0,0,1,1.14-1.7,5.423,5.423,0,0,1,1.7-1.141,5.333,5.333,0,0,1,5.71,1l-1.44,1.438a0.584,0.584,0,0,0-.15.718,0.633,0.633,0,0,0,.62.417h4.66a0.625,0.625,0,0,0,.47-0.2A0.613,0.613,0,0,0,1290,700v-4.668A0.616,0.616,0,0,0,1289.59,694.717Z" transform="translate(-1274 -694)"/>
</svg>
