<svg xmlns="http://www.w3.org/2000/svg" width="16" height="13" viewBox="0 0 16 13">
  <defs>
    <style>
      .cls-1 {
        fill: #070707;
        fill-rule: evenodd;
      }
    </style>
  </defs>
  <path id="Forma_1" data-name="Forma 1" class="cls-1" d="M249.664,1968.75a0.621,0.621,0,0,1-.664-0.65v-8.45a0.621,0.621,0,0,1,.664-0.65h1.328a0.621,0.621,0,0,1,.664.65v6.17a0.311,0.311,0,0,0,.331.33h7.37a0.362,0.362,0,0,0,.265-0.59l-0.664-.65a0.584,0.584,0,0,1-.2-0.45,0.59,0.59,0,0,1,.2-0.46l0.93-.91a0.663,0.663,0,0,1,.929,0l3.984,3.9a0.7,0.7,0,0,1,.2.46,0.682,0.682,0,0,1-.2.45l-3.984,3.9a0.639,0.639,0,0,1-.929,0l-0.93-.91a0.584,0.584,0,0,1-.2-0.45,0.59,0.59,0,0,1,.2-0.46l0.664-.65a0.346,0.346,0,0,0-.265-0.58h-9.693Z" transform="translate(-249 -1959)"/>
</svg>
