<svg xmlns="http://www.w3.org/2000/svg" xmlns:xlink="http://www.w3.org/1999/xlink" preserveAspectRatio="xMidYMid" width="18" height="18" viewBox="0 0 18 18">
  <defs>
    <style>

      .cls-2 {
        fill: #333333;
      }
    </style>
  </defs>
  <path d="M7.004,14.009 C8.712,14.009 10.265,13.403 11.477,12.378 C11.477,12.378 16.912,17.814 16.912,17.814 C17.036,17.938 17.192,18.000 17.362,18.000 C17.533,18.000 17.689,17.938 17.813,17.814 C18.061,17.565 18.061,17.161 17.813,16.913 C17.813,16.913 12.377,11.477 12.377,11.477 C13.387,10.266 14.008,8.697 14.008,7.004 C14.008,3.137 10.871,0.000 7.004,0.000 C3.153,0.000 0.000,3.153 0.000,7.004 C0.000,10.871 3.153,14.009 7.004,14.009 ZM7.004,1.274 C10.172,1.274 12.735,3.852 12.735,7.004 C12.735,10.173 10.172,12.735 7.004,12.735 C3.836,12.735 1.273,10.157 1.273,7.004 C1.273,3.852 3.851,1.274 7.004,1.274 Z" id="path-1" class="cls-2" fill-rule="evenodd"/>
</svg>
