<?xml version="1.0" encoding="UTF-8" standalone="no"?><!DOCTYPE svg PUBLIC "-//W3C//DTD SVG 1.1//EN" "http://www.w3.org/Graphics/SVG/1.1/DTD/svg11.dtd"><svg width="100%" height="100%" viewBox="0 0 24 16" version="1.1" xmlns="http://www.w3.org/2000/svg" xmlns:xlink="http://www.w3.org/1999/xlink" xml:space="preserve" style="fill-rule:evenodd;clip-rule:evenodd;stroke-linejoin:round;stroke-miterlimit:1.41421;"><g><path d="M10.682,9.936c-0.444,-1.752 -1.092,-3.318 0.253,-4.906c1.347,-1.585 5.458,-2.073 7.578,-0.082c-1.651,0.931 -2.387,2.917 -1.732,4.675c-0.118,0 0.88,-0.003 -0.353,-0.003c-1.233,0 -3.482,0.014 -5.746,0.316l0,0Z" style="fill:#e4522f;fill-rule:nonzero;"/><path d="M10.459,4.28c0.34,-0.822 0.85,-1.592 1.531,-2.26c2.745,-2.693 7.202,-2.693 9.948,0c2.749,2.693 2.749,7.064 0,9.761c-1.293,1.269 -2.966,1.938 -4.657,2.012c0.083,-0.558 0.08,-1.008 0.08,-1.068c0.512,-0.233 0.979,-0.553 1.38,-0.944c0.893,-0.877 1.396,-2.07 1.396,-3.312c0,-1.243 -0.503,-2.435 -1.396,-3.313c-1.764,-1.726 -4.574,-1.807 -6.437,-0.282c0.911,0.41 1.765,0.982 2.515,1.718l0.001,0c2.511,2.462 3.238,6.207 1.827,9.407c-1.376,-0.186 -2.759,-0.324 -4.145,-0.412c0.288,-1.544 -0.081,-3.125 -0.992,-4.382c-0.08,-0.097 -0.156,-0.196 -0.23,-0.296c-0.127,-0.154 -0.264,-0.302 -0.409,-0.444c-2.298,-2.254 -6.031,-2.254 -8.331,0c-1.464,1.434 -2.053,3.528 -1.549,5.499c-0.093,0.01 -0.185,0.025 -0.28,0.036c-1.41,-3.2 -0.683,-6.945 1.828,-9.407c2.151,-2.108 5.149,-2.879 7.92,-2.313Z" style="fill:#f8c52c;"/><path d="M0.989,15.947c-0.499,-1.966 0.092,-4.052 1.551,-5.482c2.271,-2.225 5.931,-2.254 8.24,-0.09c-1.325,0.746 -2.146,2.137 -2.147,3.639c0,0.509 0.091,0.993 0.262,1.443c-0.129,0 -0.258,-0.003 -0.387,-0.003c-2.547,0 -5.058,0.169 -7.519,0.493l0,0Z" style="fill:#e4522f;fill-rule:nonzero;"/></g></svg>