<svg xmlns="http://www.w3.org/2000/svg" width="19" height="18" viewBox="0 0 19 18">
  <defs>
    <style>
      .cls-1 {
        fill: #333;
        fill-rule: evenodd;
      }
    </style>
  </defs>
  <path id="Forma_1" data-name="Forma 1" class="cls-1" d="M1046,4538.98a0.6,0.6,0,0,0-.64-0.53l-5.73-.82-2.57-5.16a0.65,0.65,0,0,0-.56-0.47,0.661,0.661,0,0,0-.56.47l-2.57,5.16-5.73.82a0.6,0.6,0,0,0-.64.53,0.828,0.828,0,0,0,.29.54l4.15,4.01-0.98,5.67a1.216,1.216,0,0,0-.02.23,0.655,0.655,0,0,0,.12.4,0.42,0.42,0,0,0,.36.17,0.968,0.968,0,0,0,.45-0.14l5.13-2.67,5.13,2.67a0.936,0.936,0,0,0,.45.14,0.462,0.462,0,0,0,.47-0.57,1.484,1.484,0,0,0-.01-0.23l-0.98-5.67,4.14-4.01A0.828,0.828,0,0,0,1046,4538.98Zm-6.02,4.04,0.82,4.78-4.3-2.26-4.32,2.26,0.84-4.78-3.5-3.36,4.82-.71,2.16-4.33,2.16,4.33,4.82,0.71Z" transform="translate(-1027 -4532)"/>
</svg>
