<?xml version="1.0" encoding="UTF-8" standalone="no"?><!DOCTYPE svg PUBLIC "-//W3C//DTD SVG 1.1//EN" "http://www.w3.org/Graphics/SVG/1.1/DTD/svg11.dtd"><svg width="12px" height="11px" version="1.1" xmlns="http://www.w3.org/2000/svg" xmlns:xlink="http://www.w3.org/1999/xlink" xml:space="preserve" style="fill-rule:evenodd;clip-rule:evenodd;stroke-linejoin:round;stroke-miterlimit:1.41421;"><path d="M5.418,0.353c0.083,-0.165 0.253,-0.27 0.438,-0.27c0.186,0 0.356,0.105 0.439,0.27l1.374,2.735l3.025,0.462c0.184,0.028 0.336,0.157 0.393,0.333c0.058,0.177 0.01,0.371 -0.121,0.501l-2.176,2.152l0.495,3.02c0.03,0.183 -0.046,0.367 -0.196,0.477c-0.15,0.109 -0.349,0.124 -0.514,0.039l-2.719,-1.405l-2.719,1.405c-0.164,0.085 -0.363,0.07 -0.513,-0.039c-0.151,-0.11 -0.226,-0.294 -0.196,-0.477l0.495,-3.02l-2.176,-2.152c-0.132,-0.13 -0.179,-0.324 -0.121,-0.501c0.057,-0.176 0.209,-0.305 0.392,-0.333l3.026,-0.462l1.374,-2.735Z" style="fill:#333;"/></svg>