<?xml version="1.0" encoding="utf-8"?>
<svg version="1.1" xmlns="http://www.w3.org/2000/svg" xmlns:xlink="http://www.w3.org/1999/xlink" x="0px" y="0px"
	 width="20px" height="20px" viewBox="73.3 133 20 20" style="enable-background:new 73.3 133 20 20;" xml:space="preserve">
<style type="text/css">
	.st0{fill:#fff;}
</style>
<g>
	<g>
		<g>
			<path class="st0" d="M86.6,145.2c1.8-1.1,3-3.1,3-5.4c0-3.5-2.8-6.3-6.3-6.3s-6.3,2.9-6.3,6.3c0,2.3,1.2,4.3,3,5.4
				c-3.1,1.2-5.5,4-6.1,7.3h1.6c0.8-3.7,4-6.3,7.9-6.3c3.9,0,7.1,2.7,7.9,6.3h1.6C92.1,149.1,89.8,146.3,86.6,145.2z M78.6,139.8
				c0-2.6,2.1-4.8,4.7-4.8s4.7,2.1,4.7,4.8s-2.1,4.8-4.7,4.8S78.6,142.4,78.6,139.8z"/>
			<path class="st0" d="M93.3,153h-2.5l-0.1-0.4c-0.8-3.5-3.8-6-7.4-6c-3.5,0-6.7,2.5-7.4,6l-0.1,0.4h-2.5l0.1-0.6
				c0.6-3.2,2.7-5.9,5.6-7.3c-1.6-1.3-2.5-3.2-2.5-5.3c0-3.8,3-6.8,6.8-6.8c3.7,0,6.8,3.1,6.8,6.8c0,2.1-0.9,4-2.5,5.3
				c2.9,1.3,5,4.1,5.6,7.3L93.3,153z M91.6,152h0.6c-0.7-3-2.9-5.4-5.7-6.4l-0.9-0.3l0.9-0.5c1.7-1.1,2.8-2.9,2.8-5
				c0-3.2-2.6-5.9-5.8-5.9s-5.8,2.6-5.8,5.9c0,2.1,1,3.9,2.8,5l0.8,0.5l-0.9,0.3c-2.8,1.1-5,3.5-5.7,6.4h0.6c1-3.7,4.4-6.3,8.2-6.3
				C87.3,145.7,90.6,148.3,91.6,152z M83.3,145.1c-2.9,0-5.2-2.3-5.2-5.2c0-2.9,2.3-5.2,5.2-5.2s5.2,2.3,5.2,5.2
				C88.5,142.7,86.2,145.1,83.3,145.1z M83.3,135.5c-2.3,0-4.2,1.9-4.2,4.3s1.9,4.3,4.2,4.3s4.2-1.9,4.2-4.3S85.7,135.5,83.3,135.5z
				"/>
		</g>
	</g>
</g>
</svg>
