<?xml version="1.0" encoding="UTF-8" standalone="no"?><!DOCTYPE svg PUBLIC "-//W3C//DTD SVG 1.1//EN" "http://www.w3.org/Graphics/SVG/1.1/DTD/svg11.dtd"><svg width="20px" height="12px" version="1.1" xmlns="http://www.w3.org/2000/svg" xmlns:xlink="http://www.w3.org/1999/xlink" xml:space="preserve" style="fill-rule:evenodd;clip-rule:evenodd;stroke-linejoin:round;stroke-miterlimit:1.41421;"><path id="VK" d="M10.947,11.446c0.63,0 0.63,-0.908 0.63,-1.261c0,-0.63 0.631,-1.26 1.261,-1.26c0.631,0 1.712,1.081 2.522,1.891c0.631,0.63 0.631,0.63 1.261,0.63c0.63,0 1.891,0 1.891,0c0,0 1.261,-0.047 1.261,-1.261c0,-0.394 -0.431,-1.062 -1.891,-2.521c-1.261,-1.261 -1.908,-0.61 0,-3.153c1.162,-1.548 2.007,-2.951 1.862,-3.356c-0.138,-0.386 -3.37,-1.002 -3.753,-0.427c-1.261,1.892 -1.493,2.355 -1.892,3.153c-0.63,1.261 -0.693,1.891 -1.261,1.891c-0.573,0 -0.63,-1.224 -0.63,-1.891c0,-2.085 0.302,-3.559 -0.631,-3.783c0,0 -1.261,0 -1.891,0c-1.015,0 -1.892,0.63 -1.892,0.63c0,0 -0.782,0.611 -0.63,0.631c0.188,0.025 1.261,-0.261 1.261,0.63c0,0.631 0,1.261 0,1.261c0,0 0.005,2.522 -0.631,2.522c-0.63,0 -1.891,-2.522 -3.152,-4.413c-0.495,-0.742 -0.631,-0.631 -1.261,-0.631c-0.676,0 -1.26,0.027 -1.892,0.027c-0.63,0 -0.711,0.401 -0.63,0.604c1.261,3.152 2.167,5.132 4.563,7.626c2.197,2.288 3.665,2.41 4.894,2.461c0.315,0.014 0,0 0.631,0Z" style="fill:#333;"/></svg>