<?xml version="1.0" encoding="UTF-8" standalone="no"?><!DOCTYPE svg PUBLIC "-//W3C//DTD SVG 1.1//EN" "http://www.w3.org/Graphics/SVG/1.1/DTD/svg11.dtd"><svg width="19px" height="19px" version="1.1" xmlns="http://www.w3.org/2000/svg" xmlns:xlink="http://www.w3.org/1999/xlink" xml:space="preserve" style="fill-rule:evenodd;clip-rule:evenodd;stroke-linejoin:round;stroke-miterlimit:1.41421;"><g><path d="M15.252,9.343l-11.833,0c-1.881,0 -3.405,1.526 -3.405,3.407l0,2.737c0,1.88 1.524,3.406 3.405,3.406l11.833,0c1.881,0 3.406,-1.526 3.406,-3.406l0,-2.737c0,-1.881 -1.525,-3.407 -3.406,-3.407Zm-9.347,2.131l-1.1,0l0,5.466l-1.063,0l0,-5.466l-1.099,0l0,-0.93l3.262,0l0,0.93Zm3.108,5.466l-0.943,0l0,-0.517c-0.175,0.191 -0.356,0.337 -0.544,0.436c-0.189,0.102 -0.371,0.15 -0.548,0.15c-0.219,0 -0.382,-0.069 -0.493,-0.211c-0.11,-0.141 -0.165,-0.35 -0.165,-0.632l0,-3.945l0.942,0l0,3.62c0,0.112 0.021,0.192 0.059,0.242c0.04,0.051 0.105,0.075 0.194,0.075c0.068,0 0.156,-0.033 0.262,-0.099c0.107,-0.067 0.204,-0.151 0.293,-0.254l0,-3.584l0.943,0l0,4.719Zm3.422,-0.974c0,0.333 -0.074,0.589 -0.222,0.768c-0.147,0.179 -0.362,0.267 -0.64,0.267c-0.186,0 -0.351,-0.034 -0.494,-0.103c-0.144,-0.069 -0.28,-0.174 -0.404,-0.32l0,0.362l-0.954,0l0,-6.396l0.954,0l0,2.06c0.128,-0.143 0.263,-0.253 0.404,-0.327c0.144,-0.076 0.289,-0.112 0.436,-0.112c0.298,0 0.525,0.099 0.683,0.3c0.158,0.201 0.237,0.496 0.237,0.882l0,2.619l0,0Zm3.271,-1.272l-1.804,0l0,0.889c0,0.248 0.03,0.421 0.092,0.517c0.063,0.097 0.169,0.144 0.32,0.144c0.156,0 0.265,-0.041 0.328,-0.122c0.06,-0.082 0.093,-0.261 0.093,-0.539l0,-0.214l0.971,0l0,0.242c0,0.483 -0.118,0.848 -0.356,1.094c-0.235,0.243 -0.588,0.364 -1.058,0.364c-0.423,0 -0.757,-0.129 -0.999,-0.388c-0.241,-0.258 -0.364,-0.615 -0.364,-1.07l0,-2.119c0,-0.408 0.134,-0.744 0.402,-1.001c0.266,-0.258 0.609,-0.386 1.032,-0.386c0.432,0 0.764,0.119 0.995,0.358c0.232,0.239 0.348,0.581 0.348,1.028l0,1.203Z" style="fill:#333;fill-rule:nonzero;"/><path d="M14.323,12.93c-0.151,0 -0.258,0.042 -0.323,0.13c-0.067,0.083 -0.098,0.225 -0.098,0.423l0,0.477l0.833,0l0,-0.477c0,-0.198 -0.033,-0.34 -0.099,-0.423c-0.064,-0.088 -0.17,-0.13 -0.313,-0.13Z" style="fill:#333;fill-rule:nonzero;"/><path d="M11.07,12.914c-0.067,0 -0.135,0.015 -0.2,0.045c-0.066,0.03 -0.13,0.08 -0.194,0.145l0,2.939c0.075,0.076 0.15,0.135 0.223,0.168c0.073,0.033 0.148,0.051 0.228,0.051c0.116,0 0.201,-0.034 0.255,-0.101c0.054,-0.067 0.081,-0.174 0.081,-0.325l0,-2.437c0,-0.16 -0.032,-0.28 -0.099,-0.363c-0.069,-0.081 -0.167,-0.122 -0.294,-0.122Z" style="fill:#333;fill-rule:nonzero;"/><path d="M4.969,7.704l1.195,0l0,-2.923l1.391,-4.124l-1.215,0l-0.739,2.817l-0.076,0l-0.776,-2.817l-1.204,0l1.424,4.255l0,2.792Z" style="fill:#333;fill-rule:nonzero;"/><path d="M9.175,7.835c0.482,0 0.861,-0.127 1.137,-0.38c0.274,-0.254 0.411,-0.601 0.411,-1.046l0,-2.685c0,-0.396 -0.14,-0.722 -0.419,-0.973c-0.282,-0.25 -0.642,-0.377 -1.081,-0.377c-0.483,0 -0.867,0.12 -1.153,0.358c-0.285,0.238 -0.429,0.558 -0.429,0.962l0,2.695c0,0.442 0.14,0.791 0.418,1.054c0.279,0.261 0.652,0.392 1.116,0.392Zm-0.441,-4.18c0,-0.113 0.041,-0.204 0.121,-0.276c0.082,-0.07 0.187,-0.104 0.317,-0.104c0.14,0 0.254,0.034 0.34,0.104c0.087,0.072 0.129,0.163 0.129,0.276l0,2.832c0,0.139 -0.042,0.249 -0.127,0.328c-0.085,0.08 -0.199,0.119 -0.342,0.119c-0.141,0 -0.249,-0.038 -0.325,-0.117c-0.075,-0.078 -0.113,-0.188 -0.113,-0.33l0,-2.832l0,0Z" style="fill:#333;fill-rule:nonzero;"/><path d="M12.326,7.78c0.2,0 0.405,-0.057 0.616,-0.167c0.213,-0.111 0.417,-0.273 0.611,-0.485l0,0.576l1.062,0l0,-5.198l-1.062,0l0,3.946c-0.098,0.113 -0.208,0.205 -0.326,0.279c-0.12,0.073 -0.219,0.109 -0.297,0.109c-0.1,0 -0.173,-0.027 -0.216,-0.084c-0.044,-0.054 -0.068,-0.143 -0.068,-0.265l0,-3.985l-1.061,0l0,4.344c0,0.31 0.063,0.542 0.186,0.695c0.125,0.156 0.309,0.235 0.555,0.235Z" style="fill:#333;fill-rule:nonzero;"/></g></svg>