<?xml version="1.0" encoding="utf-8"?><!DOCTYPE svg PUBLIC "-//W3C//DTD SVG 1.1//EN" "http://www.w3.org/Graphics/SVG/1.1/DTD/svg11.dtd"><svg width="246" height="192" viewBox="0 0 246 192" xmlns="http://www.w3.org/2000/svg" xmlns:xlink="http://www.w3.org/1999/xlink"><svg width="22" height="22" viewBox="-2 -2 22 22" id="alert" x="164" y="107"><defs><style>.aacls-1{fill:#333;fill-rule:evenodd}</style></defs><path id="aaForma_1" data-name="Forma 1" class="aacls-1" d="M271 1148a9 9 0 1 0 9 9 9 9 0 0 0-9-9zm.9 13.5h-1.8v-1.8h1.8v1.8zm0-3.6h-1.8v-5.4h1.8v5.4z" transform="translate(-262 -1148)"/></svg><svg width="22" height="22" fill-rule="evenodd" clip-rule="evenodd" stroke-linecap="round" stroke-linejoin="round" stroke-miterlimit="1.5" viewBox="-2 -2 22 22" id="all" x="186" y="107"><g fill="none" stroke="#333"><path d="M5.173 4.453c-.081.184.028 9.123.028 8.977M9.186 4.453c-.082.184.027 9.123.027 8.977M13.198 4.453c-.081.184.027 9.123.027 8.977"/><path d="M1.242 1.001h15.884v15.884H1.242z"/></g></svg><svg width="21" height="21" viewBox="-2 -2 21 21" id="auth" y="131"><defs><style>.accls-1{fill:#333;fill-rule:evenodd}</style></defs><path id="acForma_1" data-name="Forma 1" class="accls-1" d="M260.475 338.483a5.593 5.593 0 0 0 2.692-4.817 5.667 5.667 0 0 0-11.334 0 5.593 5.593 0 0 0 2.692 4.817A8.763 8.763 0 0 0 249 345h1.417a7.26 7.26 0 0 1 14.166 0H266a8.533 8.533 0 0 0-5.525-6.517zm-7.225-4.817a4.25 4.25 0 1 1 4.25 4.25 4.262 4.262 0 0 1-4.25-4.25z" transform="translate(-249 -328)"/></svg><svg width="23" height="22" fill-rule="evenodd" clip-rule="evenodd" stroke-linecap="round" stroke-linejoin="round" stroke-miterlimit="1.5" viewBox="-2 -2 23 22" id="book" x="181" y="78"><g fill="none" stroke="#333"><path d="M9.613 5.016C7.4 2.199 4.542 1.234 1.242 1.535l.181 14.294c2.83-.188 5.596.244 8.271 1.537 2.676-1.293 5.441-1.725 8.271-1.537l.181-14.294c-3.299-.301-6.158.664-8.371 3.481M9.694 4.661c-.03.13 0 12.705 0 12.705"/></g></svg><svg preserveAspectRatio="xMidYMid" width="15" height="19" viewBox="-2 -2 15 19" id="buy-one-click" x="39" y="172"><defs><style>.aecls-2{fill:#000}</style></defs><path d="M10.996 7.274a.556.556 0 0 0-.24-.541L.816.088A.502.502 0 0 0 .275.07.565.565 0 0 0 0 .556v11.749c0 .211.115.395.293.495a.514.514 0 0 0 .558-.055l2.82-2.181 2.581 4.179a.525.525 0 0 0 .718.184l2.633-1.577a.55.55 0 0 0 .249-.348.54.54 0 0 0-.071-.422L7.378 8.667l3.245-.944a.55.55 0 0 0 .373-.449zm-4.603.531a.563.563 0 0 0-.354.33.57.57 0 0 0 .044.495l2.483 4.051-1.711 1.027-2.599-4.235a.53.53 0 0 0-.354-.247c-.036-.009-.062-.009-.098-.009a.52.52 0 0 0-.319.11l-2.43 1.879V1.564l8.141 5.435-2.803.806z" id="aepath-1" class="aecls-2" fill-rule="evenodd"/></svg><svg width="25" height="22" fill-rule="evenodd" clip-rule="evenodd" stroke-linecap="round" stroke-linejoin="round" stroke-miterlimit="1.5" viewBox="-2 -2 25 22" id="cart" x="156" y="78"><g fill="none" stroke="#333"><path d="M5.625 7.306c-.011-.025 12.753 0 12.753 0M9.426 3.828v6.365M14.426 3.828v6.365" stroke-width="1.5"/><circle cx="7.67" cy="16.266" r=".974" stroke-width="1.5"/><circle cx="16.291" cy="16.266" r=".974" stroke-width="1.5"/><path d="M1.588 1.266h3.02l1.901 12.053h10.755" stroke-width="2"/><path d="M5.012 3.828h14.271l-1.422 6.933-11.49-.003" stroke-width="2"/></g></svg><svg width="25" height="22" fill-rule="evenodd" clip-rule="evenodd" stroke-linecap="round" stroke-linejoin="round" stroke-miterlimit="1.5" viewBox="-2 -2 25 22" id="cart-white" x="81" y="78"><g fill="none" stroke="#fff"><path d="M5.625 7.306c-.011-.025 12.753 0 12.753 0M9.426 3.828v6.365M14.426 3.828v6.365" stroke-width="1.5"/><circle cx="7.67" cy="16.266" r=".974" stroke-width="1.5"/><circle cx="16.291" cy="16.266" r=".974" stroke-width="1.5"/><path d="M1.588 1.266h3.02l1.901 12.053h10.755" stroke-width="2"/><path d="M5.012 3.828h14.271l-1.422 6.933-11.49-.003" stroke-width="2"/></g></svg><svg width="18" height="15" viewBox="-2 -2 18 15" id="check" x="40" y="152"><defs><style>.ahcls-1{fill:#333;fill-rule:evenodd}</style></defs><path class="ahcls-1" d="M4.248 10.85a.655.655 0 0 0 .9 0l8.694-8.14a.565.565 0 0 0 0-.84l-1.8-1.69a.654.654 0 0 0-.9 0l-6.44 6.03-1.8-1.69a.655.655 0 0 0-.9 0l-1.8 1.69a.566.566 0 0 0 0 .84z"/></svg><svg width="20" height="20" viewBox="-2 -2 20 20" id="edit" x="21" y="131"><defs><style>.aicls-1{fill:#333;fill-rule:evenodd}</style></defs><path id="aiedit.svg" class="aicls-1" d="M805.677 871.908a.369.369 0 0 1-.062.246l-7.2 7.2a.3.3 0 0 1-.43 0l-2.216-2.277a.3.3 0 0 1 0-.431l7.2-7.2a.3.3 0 0 1 .246-.061.375.375 0 0 1 .247.061l2.215 2.215a.34.34 0 0 0 0 .247zM803.092 866a.561.561 0 0 0-.431.184l-9.476 9.477a.559.559 0 0 0-.185.431v5.292a.581.581 0 0 0 .615.616h5.293a.558.558 0 0 0 .43-.185l9.477-9.477a.593.593 0 0 0 0-.861l-5.292-5.293a.558.558 0 0 0-.431-.184z" transform="translate(-793 -866)"/></svg><svg width="20" height="13" viewBox="-2 -2 20 13" id="eye" x="81" y="131"><defs><style>.ajcls-1{fill-rule:evenodd}</style></defs><path id="ajShape_1.svg_copy" data-name="Shape 1.svg copy" class="ajcls-1" d="M1077.89 520.806a.5.5 0 0 0-.01-.638c-2.42-2.766-5.04-4.169-7.77-4.169-4.64 0-7.87 4.021-8 4.19a.5.5 0 0 0 .01.638c2.42 2.77 5.03 4.172 7.77 4.172 4.64.001 7.86-4.02 8-4.193zm-8 3.152c-2.28 0-4.5-1.166-6.61-3.461.83-.909 3.45-3.456 6.83-3.456 2.28 0 4.5 1.166 6.61 3.461-.83.908-3.46 3.456-6.83 3.456zm.11-6.1a2.652 2.652 0 1 0 2.84 2.645 2.758 2.758 0 0 0-2.84-2.649zm0 4.248a1.607 1.607 0 1 1 1.72-1.6 1.674 1.674 0 0 1-1.72 1.594z" transform="translate(-1062.03 -516)"/></svg><svg width="25" height="22" fill-rule="evenodd" clip-rule="evenodd" stroke-linecap="round" stroke-linejoin="round" stroke-miterlimit="1.5" viewBox="-2 -2 25 22" id="favorite" x="56" y="78"><path d="M10.537 6.428c-2.185-12.156-19.11.189 0 9.943 19.11-9.754 2.185-22.099 0-9.943" fill="none" stroke="#333" stroke-width="2"/></svg><svg id="favorite-full" width="25" height="22" viewBox="-471 270 25 22" x="131" y="78"><style>.alst0{fill:#333}</style><path class="alst0" d="M-458.5 289.4c-.2 0-.3 0-.5-.1-10.3-5.3-9.8-11-9.3-12.6.7-2.6 3-4.4 5.5-4.3 1.8.1 3.4 1.1 4.3 2.9 1-1.8 2.5-2.9 4.3-2.9 2.5-.1 4.8 1.7 5.5 4.3.4 1.6 1 7.3-9.3 12.6-.2 0-.3.1-.5.1z"/></svg><svg width="25" height="22" fill-rule="evenodd" clip-rule="evenodd" stroke-linecap="round" stroke-linejoin="round" stroke-miterlimit="1.5" viewBox="-2 -2 25 22" id="favorite-white" x="106" y="78"><path d="M10.537 6.428c-2.185-12.156-19.11.189 0 9.943 19.11-9.754 2.185-22.099 0-9.943" fill="none" stroke="#fff" stroke-width="2"/></svg><svg width="13" height="22" fill-rule="evenodd" clip-rule="evenodd" stroke-linejoin="round" stroke-miterlimit="1.414" viewBox="-2 -2 13 22" id="fb" x="208" y="107"><path d="M8.295 5.704H5.537V3.895c0-.68.45-.838.767-.838h1.947V.07L5.57.059c-2.976 0-3.653 2.228-3.653 3.654v1.991H.195v3.078h1.722v8.709h3.62V8.782H7.98l.315-3.078z" fill="#333" fill-rule="nonzero"/></svg><svg width="20" height="20" viewBox="-2 -2 20 20" id="file" y="172"><defs><style>.aocls-1{fill:#333;fill-rule:evenodd}</style></defs><path id="aoForma_1.svg" data-name="Forma 1.svg" class="aocls-1" d="M742.946 5914.85a.671.671 0 0 0 .429.18.565.565 0 0 0 .43-.18l5.639-5.64a.568.568 0 0 1 .43-.18.576.576 0 0 1 .613.61.562.562 0 0 1-.184.43l-6.682 6.68a2.558 2.558 0 0 1-3.5 0 2.417 2.417 0 0 1-.735-1.72 2.313 2.313 0 0 1 .735-1.71l7.418-7.42a.6.6 0 0 0 0-.86l-.858-.86a.6.6 0 0 0-.858 0l-7.418 7.42a4.87 4.87 0 0 0-1.41 3.5 4.966 4.966 0 0 0 1.41 3.49 4.859 4.859 0 0 0 3.495 1.41 4.96 4.96 0 0 0 3.494-1.41l6.682-6.68a3.123 3.123 0 0 0 .92-2.15 3.035 3.035 0 0 0-3.065-3.06 2.852 2.852 0 0 0-2.146.92l-5.64 5.64a.583.583 0 0 0 0 .85z" transform="translate(-737 -5904)"/></svg><svg width="23" height="23" fill-rule="evenodd" clip-rule="evenodd" stroke-linejoin="round" stroke-miterlimit="1.414" viewBox="-2 -2 23 23" id="in" x="141" y="107"><path d="M16.127 0H2.171C.981 0 .017.984.002 2.171L0 2.145v14.292c0 1.2.972 2.171 2.171 2.171h14.266c1.162-.041 2.171-.998 2.171-2.171V2.171C18.594 1.01 17.28.042 16.127 0zM9.304 5.893a3.412 3.412 0 1 1 0 6.823 3.412 3.412 0 0 1 0-6.823zm6.823 8.993c0 .685-.556 1.241-1.241 1.241H3.722a1.241 1.241 0 0 1-1.241-1.241V7.753h1.463a5.582 5.582 0 1 0 10.942 1.551c0-.538-.08-1.058-.222-1.551h1.463l-.002 7.109.002.024zm0-11.78v1.871h-.003a.617.617 0 0 1-.607.604v.001h-1.871a.618.618 0 0 1-.617-.606h-.003v-1.87h.001l-.001-.005a.62.62 0 0 1 .62-.62h1.871v.002c.338.006.61.279.61.618l-.001.005h.001z" fill="#333" fill-rule="nonzero"/></svg><svg width="20" height="20" viewBox="-2 -2 20 20" id="insta-gray" x="61" y="131"><defs><style>.aqcls-1{fill:#7c7b7a;fill-rule:evenodd}</style></defs><path id="aqForma_1" data-name="Forma 1" class="aqcls-1" d="M183.584 4095h-7.169a4.419 4.419 0 0 0-4.415 4.41v7.17a4.421 4.421 0 0 0 4.415 4.42h7.169a4.421 4.421 0 0 0 4.416-4.42v-7.17a4.419 4.419 0 0 0-4.416-4.41zm3 11.58a3 3 0 0 1-3 3h-7.169a3 3 0 0 1-3-3v-7.17a3 3 0 0 1 3-2.99h7.169a3 3 0 0 1 3 2.99v7.17zm-6.58-7.7a4.12 4.12 0 1 0 4.123 4.12 4.128 4.128 0 0 0-4.127-4.12zm0 6.82a2.7 2.7 0 1 1 2.7-2.7 2.7 2.7 0 0 1-2.704 2.7zm4.3-8.03a1.05 1.05 0 0 0-1.041 1.04 1.039 1.039 0 0 0 .305.74 1.029 1.029 0 0 0 1.472 0 1.038 1.038 0 0 0 0-1.47 1.026 1.026 0 0 0-.74-.31z" transform="translate(-172 -4095)"/></svg><svg width="20" height="20" viewBox="-2 -2 20 20" id="load-more" y="152"><defs><style>.arcls-1{fill-rule:evenodd}</style></defs><path class="arcls-1" d="M15.742 9.63a.9.9 0 0 0-.619-.26h-4.375a.88.88 0 0 0-.873.88v.74a.9.9 0 0 0 .873.89h1.158a5.661 5.661 0 0 1-3.915 1.62 5.51 5.51 0 0 1-5.195-3.68 1.256 1.256 0 0 0-1.18-.84 1.165 1.165 0 0 0-.413.07 1.245 1.245 0 0 0-.713.64 1.231 1.231 0 0 0-.054.95A8 8 0 0 0 13.5 13.8v.82a.891.891 0 0 0 .885.88h.741a.881.881 0 0 0 .874-.88v-4.37a.881.881 0 0 0-.258-.62zm-.177-4.27A8 8 0 0 0 2.5 2.2v-.82A.889.889 0 0 0 1.616.5H.875A.882.882 0 0 0 0 1.38v4.37a.845.845 0 0 0 .258.61.857.857 0 0 0 .62.26h4.374a.871.871 0 0 0 .873-.87v-.74a.889.889 0 0 0-.873-.89H4.1A5.662 5.662 0 0 1 8.016 2.5a5.509 5.509 0 0 1 5.194 3.68 1.256 1.256 0 0 0 1.18.84 1.165 1.165 0 0 0 .413-.07 1.252 1.252 0 0 0 .762-1.59z"/></svg><svg width="246" height="30" fill-rule="evenodd" clip-rule="evenodd" stroke-linejoin="round" stroke-miterlimit="1.414" viewBox="-2 -2 246 30" id="logo"><g fill="#333" fill-rule="nonzero"><path d="M8.472 1.683a1.14 1.14 0 0 0-.701.703c-.127.342-.191.889-.191 1.641v15.234c0 .645.048 1.111.145 1.399a.895.895 0 0 0 .549.586c.269.103.693.154 1.272.154h1.524c.945 0 1.811-.278 2.599-.835.787-.557 1.448-1.34 1.981-2.351.534-1.011.902-2.18 1.105-3.508h.717a30.72 30.72 0 0 0-.092 2.636c0 1.924.071 3.506.213 4.746-1.412-.058-3.795-.088-7.148-.088-4.531 0-7.92.03-10.165.088v-.6c.691-.029 1.194-.108 1.509-.235.315-.127.531-.361.647-.703.117-.341.176-.888.176-1.64V4.027c0-.752-.059-1.299-.176-1.641a1.096 1.096 0 0 0-.647-.703C1.474 1.556.971 1.478.28 1.449V.848c1.046.059 2.687.088 4.923.088 2.113 0 3.749-.029 4.907-.088v.601c-.752.029-1.298.107-1.638.234zM39.851 21.012c.346.298.691.456 1.037.476v.6c-1.25-.058-2.83-.088-4.74-.088-2.134 0-3.714.03-4.74.088v-.6c.782-.029 1.343-.122 1.684-.279.34-.156.51-.429.51-.82 0-.303-.127-.776-.381-1.421l-1.874-4.922h-6.798l-.823 2.066c-.569 1.406-.853 2.519-.853 3.34 0 .742.228 1.259.686 1.552.457.293 1.148.455 2.072.484v.6A94.272 94.272 0 0 0 21.76 22c-.955 0-1.747.03-2.377.088v-.6c1.036-.166 1.93-1.216 2.682-3.15L29.183.79c.335.029.696.044 1.082.044.406 0 .767-.015 1.082-.044l7.574 18.779c.275.664.585 1.145.93 1.443zM28.024 5.345l-3.231 8.101h6.325l-3.094-8.101zM62.894 20.77c.33.273.764.513 1.303.718v.6A125.435 125.435 0 0 0 59.32 22c-1.372 0-2.693.03-3.963.088v-.6c.59-.029 1.011-.088 1.265-.176s.381-.225.381-.41c0-.166-.112-.42-.335-.762l-4.527-7.046a8.04 8.04 0 0 0-.739-1.003 1.9 1.9 0 0 0-.632-.484 2.688 2.688 0 0 0-.808-.183v7.486c0 .752.056 1.299.168 1.64.111.342.325.576.64.703s.823.206 1.524.235v.6c-1.118-.058-2.688-.088-4.71-.088-2.235 0-3.876.03-4.922.088v-.6c.69-.029 1.193-.108 1.508-.235a1.1 1.1 0 0 0 .648-.703c.117-.341.175-.888.175-1.64V4.027c0-.752-.058-1.299-.175-1.641a1.1 1.1 0 0 0-.648-.703c-.315-.127-.818-.205-1.508-.234V.848c1.046.059 2.687.088 4.922.088 2.022 0 3.592-.029 4.71-.088v.601c-.701.029-1.209.107-1.524.234a1.074 1.074 0 0 0-.64.703c-.112.342-.168.889-.168 1.641v6.753a4.678 4.678 0 0 0 2.271-.733c.691-.439 1.473-1.137 2.347-2.094l1.844-2.124c.945-1.075 1.417-1.997 1.417-2.769 0-.498-.2-.889-.602-1.172-.401-.283-.967-.439-1.699-.469V.848c1.534.059 3.079.088 4.633.088 1.199 0 2.175-.029 2.927-.088v.571c-1.646.362-3.155 1.324-4.527 2.886l-3.902 4.453 7.27 10.899c.305.468.623.84.953 1.113zM86.737 20.77c.33.273.764.513 1.303.718v.6A125.435 125.435 0 0 0 83.163 22c-1.372 0-2.693.03-3.963.088v-.6c.589-.029 1.011-.088 1.265-.176s.381-.225.381-.41c0-.166-.112-.42-.335-.762l-4.527-7.046a8.04 8.04 0 0 0-.739-1.003 1.893 1.893 0 0 0-.633-.484 2.674 2.674 0 0 0-.807-.183v7.486c0 .752.056 1.299.167 1.64.112.342.326.576.64.703.315.127.823.206 1.525.235v.6c-1.118-.058-2.688-.088-4.71-.088-2.235 0-3.876.03-4.923.088v-.6c.691-.029 1.194-.108 1.509-.235a1.1 1.1 0 0 0 .648-.703c.117-.341.175-.888.175-1.64V4.027c0-.752-.058-1.299-.175-1.641a1.1 1.1 0 0 0-.648-.703c-.315-.127-.818-.205-1.509-.234V.848c1.047.059 2.688.088 4.923.088 2.022 0 3.592-.029 4.71-.088v.601c-.702.029-1.21.107-1.525.234a1.08 1.08 0 0 0-.64.703c-.111.342-.167.889-.167 1.641v6.753a4.678 4.678 0 0 0 2.271-.733c.691-.439 1.473-1.137 2.347-2.094l1.844-2.124c.945-1.075 1.417-1.997 1.417-2.769 0-.498-.2-.889-.602-1.172-.401-.283-.968-.439-1.699-.469V.848c1.534.059 3.079.088 4.633.088 1.199 0 2.174-.029 2.926-.088v.571c-1.646.362-3.155 1.324-4.526 2.886l-3.902 4.453 7.27 10.899c.305.468.622.84.953 1.113z"/><g><path d="M173.431 22.103c-.646.273-1.42.41-2.325.41-1.199 0-2.149-.244-2.85-.732-.701-.489-1.158-1.328-1.371-2.52l-.564-2.988c-.183-.967-.374-1.746-.572-2.336-.198-.591-.482-1.06-.853-1.407-.371-.346-.861-.52-1.471-.52h-2.027v6.9c0 .752.056 1.299.168 1.64.111.342.325.576.64.703s.823.206 1.524.235v.6c-1.108-.058-2.678-.088-4.71-.088-2.225 0-3.866.03-4.922.088v-.6c.69-.029 1.193-.108 1.508-.235a1.1 1.1 0 0 0 .648-.703c.117-.341.175-.888.175-1.64V4.027c0-.752-.058-1.299-.175-1.641a1.1 1.1 0 0 0-.648-.703c-.315-.127-.818-.205-1.508-.234V.848c1.056.059 2.636.088 4.739.088.834 0 1.758-.01 2.774-.029 1.016-.02 1.722-.03 2.119-.03 2.865 0 5.024.452 6.477 1.355 1.453.904 2.18 2.19 2.18 3.86 0 .889-.219 1.734-.656 2.534-.437.801-1.178 1.497-2.225 2.088-1.046.591-2.428.984-4.145 1.179h.03c1.26.107 2.294.313 3.102.615.807.303 1.44.725 1.897 1.267.457.542.777 1.233.96 2.073l.717 3.091c.172.811.368 1.372.586 1.685.219.312.526.468.922.468.244-.009.458-.068.64-.175.183-.108.387-.279.61-.513l.427.366c-.569.615-1.176 1.06-1.821 1.333zm-7.956-11.338a3.312 3.312 0 0 0 1.356-1.728c.249-.723.374-1.592.374-2.608 0-1.64-.303-2.881-.907-3.72-.605-.84-1.593-1.26-2.965-1.26-.558 0-.972.071-1.242.212-.269.142-.452.391-.548.747-.097.357-.145.896-.145 1.619v7.383h1.341c1.169 0 2.08-.215 2.736-.645zM194.362 1.712a9.158 9.158 0 0 1 3.864 3.743c.914 1.636 1.372 3.582 1.372 5.837 0 2.208-.47 4.161-1.41 5.86a9.97 9.97 0 0 1-3.925 3.955c-1.676.937-3.581 1.406-5.715 1.406-2.205 0-4.138-.429-5.799-1.289a9.105 9.105 0 0 1-3.856-3.743c-.909-1.635-1.364-3.581-1.364-5.837 0-2.207.467-4.16 1.402-5.859a9.905 9.905 0 0 1 3.917-3.955c1.676-.938 3.587-1.407 5.73-1.407 2.195 0 4.123.43 5.784 1.289zm-8.931.594c-.869.893-1.539 2.138-2.012 3.735-.472 1.597-.708 3.425-.708 5.486 0 2.08.264 3.911.792 5.493.529 1.582 1.245 2.803 2.149 3.662.904.86 1.91 1.289 3.018 1.289 1.148 0 2.156-.447 3.025-1.34.869-.894 1.54-2.139 2.012-3.735.472-1.597.709-3.426.709-5.486 0-2.071-.264-3.899-.793-5.486-.528-1.587-1.247-2.81-2.156-3.67-.91-.859-1.913-1.289-3.01-1.289-1.149 0-2.157.447-3.026 1.341zM211.514 1.683c-.34.127-.574.361-.701.703-.127.342-.19.889-.19 1.641v15.234c0 .645.048 1.111.145 1.399a.894.894 0 0 0 .548.586c.27.103.694.154 1.273.154h1.524c.945 0 1.811-.278 2.599-.835.787-.557 1.447-1.34 1.981-2.351.533-1.011.902-2.18 1.105-3.508h.716a30.78 30.78 0 0 0-.091 2.636c0 1.924.071 3.506.213 4.746-1.412-.058-3.795-.088-7.148-.088-4.532 0-7.92.03-10.166.088v-.6c.691-.029 1.194-.108 1.509-.235a1.1 1.1 0 0 0 .648-.703c.117-.341.175-.888.175-1.64V4.027c0-.752-.058-1.299-.175-1.641a1.1 1.1 0 0 0-.648-.703c-.315-.127-.818-.205-1.509-.234V.848c1.047.059 2.688.088 4.923.088 2.114 0 3.749-.029 4.908-.088v.601c-.752.029-1.298.107-1.639.234zM232.141 1.683c-.34.127-.574.361-.701.703-.127.342-.19.889-.19 1.641v15.234c0 .645.048 1.111.145 1.399a.894.894 0 0 0 .548.586c.269.103.694.154 1.273.154h1.524c.945 0 1.811-.278 2.598-.835.788-.557 1.448-1.34 1.982-2.351.533-1.011.902-2.18 1.105-3.508h.716a30.78 30.78 0 0 0-.091 2.636c0 1.924.071 3.506.213 4.746-1.412-.058-3.795-.088-7.148-.088-4.532 0-7.92.03-10.166.088v-.6c.691-.029 1.194-.108 1.509-.235a1.1 1.1 0 0 0 .648-.703c.117-.341.175-.888.175-1.64V4.027c0-.752-.058-1.299-.175-1.641a1.1 1.1 0 0 0-.648-.703c-.315-.127-.818-.205-1.509-.234V.848c1.047.059 2.688.088 4.923.088 2.114 0 3.749-.029 4.908-.088v.601c-.752.029-1.298.107-1.639.234z"/></g><path d="M132.07 1.111a4.39 4.39 0 0 1 1.848 1.594c.449.692.673 1.508.673 2.449 0 1.084-.305 2.028-.915 2.83-.61.803-1.422 1.447-2.436 1.934-.829.377-2.579.969-5.251 1.777 1.325.531 2.301 1.298 2.928 2.299.628 1.002.942 2.156.942 3.462 0 1.405-.435 2.731-1.305 3.976-.869 1.245-2.121 2.249-3.756 3.013-1.636.763-3.547 1.145-5.735 1.145-2.061 0-3.964-.346-5.709-1.037-1.744-.692-3.138-1.68-4.18-2.964-1.042-1.284-1.563-2.772-1.563-4.465 0-1.495.386-2.756 1.157-3.786.772-1.029 1.65-1.812 2.634-2.349.985-.537 1.898-.91 2.738-1.12-1.151-.476-2.032-1.107-2.643-1.893-.61-.786-.915-1.616-.915-2.49 0-.753.23-1.453.691-2.1.461-.648 1.14-1.168 2.038-1.561.898-.393 1.981-.589 3.247-.589 1.578 0 2.804.343 3.68 1.029.437.343.765.722.984 1.137.219.415.328.817.328 1.204 0 .542-.201.979-.604 1.311a2.109 2.109 0 0 1-1.382.499 1.94 1.94 0 0 1-1.304-.465c-.363-.31-.544-.725-.544-1.245 0-.487.175-.908.527-1.262.351-.354.803-.554 1.355-.598-.103-.299-.403-.556-.898-.772-.495-.216-1.094-.324-1.796-.324-1.232 0-2.223.355-2.971 1.063-.749.708-1.123 1.704-1.123 2.988 0 1.517.599 2.806 1.797 3.868a13.911 13.911 0 0 1 2.193-.199c.438 0 .783.067 1.037.199.253.133.38.327.38.581 0 .2-.09.357-.268.474-.179.116-.418.174-.717.174a3.72 3.72 0 0 1-1.105-.183 9.198 9.198 0 0 1-.985-.357 7.41 7.41 0 0 0-.501-.207c-3.063.874-4.594 2.734-4.594 5.578 0 1.516.414 2.828 1.243 3.935.829 1.106 1.964 1.95 3.403 2.531 1.439.581 3.051.872 4.836.872 1.682 0 3.23-.252 4.647-.755 1.416-.504 2.545-1.229 3.385-2.175.841-.947 1.261-2.045 1.261-3.296 0-.885-.25-1.795-.751-2.731-.501-.935-1.437-1.668-2.807-2.199-2.096.63-3.455 1.062-4.076 1.295-.991.365-1.757.78-2.298 1.245-.541.465-.812 1.035-.812 1.71 0 .553.17 1.037.51 1.452.34.415.763.731 1.27.947.506.215.996.323 1.468.323.403 0 .843-.066 1.321-.199s.746-.315.803-.548a2.404 2.404 0 0 1-1.166-.531c-.328-.277-.492-.675-.492-1.195 0-.532.184-.96.553-1.287.368-.326.829-.49 1.382-.49.564 0 1.019.169 1.364.507.346.337.518.783.518 1.336 0 .609-.213 1.135-.639 1.577-.426.443-.964.778-1.615 1.005-.65.226-1.304.34-1.96.34a5.249 5.249 0 0 1-2.082-.432 3.897 3.897 0 0 1-1.658-1.328c-.432-.597-.647-1.339-.647-2.224 0-1.151.405-2.131 1.217-2.939.812-.808 2.036-1.483 3.671-2.025.46-.144 1.35-.396 2.668-.756 1.319-.359 2.45-.683 3.395-.971a22.49 22.49 0 0 0 2.573-.946c1.117-.509 1.903-1.027 2.358-1.552.455-.526.682-1.099.682-1.719 0-.631-.19-1.209-.57-1.735a3.969 3.969 0 0 0-1.511-1.245 4.595 4.595 0 0 0-2.03-.456c-.598 0-.95.099-1.053.299.311.155.552.379.725.672.173.293.259.595.259.905 0 .465-.196.858-.587 1.179-.392.32-.858.481-1.399.481-.507 0-.944-.147-1.313-.44-.368-.293-.553-.711-.553-1.253 0-.554.196-1.008.588-1.362.391-.354.883-.608 1.476-.763a7.187 7.187 0 0 1 1.823-.233c.979 0 1.859.186 2.643.556z"/></g></svg><svg width="185" height="23" fill-rule="evenodd" clip-rule="evenodd" stroke-linejoin="round" stroke-miterlimit="1.414" viewBox="-2 -2 185 23" id="logo-small" y="55"><g fill="#333" fill-rule="nonzero"><path d="M6.153.946a.862.862 0 0 0-.527.528c-.095.257-.143.668-.143 1.233v11.442c0 .484.036.834.109 1.05.072.217.21.363.412.44.202.078.521.116.956.116h1.145c.709 0 1.36-.209 1.951-.627.592-.418 1.088-1.007 1.488-1.766.401-.759.678-1.637.83-2.635h.538a23.078 23.078 0 0 0-.068 1.98c0 1.445.053 2.634.16 3.565-1.061-.044-2.85-.066-5.369-.066-3.403 0-5.948.022-7.635.066v-.451c.519-.022.897-.081 1.133-.176a.825.825 0 0 0 .487-.528c.088-.257.131-.668.131-1.232V2.707c0-.565-.043-.976-.131-1.233a.83.83 0 0 0-.487-.528C.897.851.519.792 0 .77V.319c.786.044 2.018.066 3.697.066 1.588 0 2.816-.022 3.686-.066V.77c-.564.022-.975.081-1.23.176zM29.721 15.463c.26.224.519.343.779.358v.451a78.65 78.65 0 0 0-3.561-.066c-1.602 0-2.789.022-3.56.066v-.451c.588-.022 1.01-.092 1.265-.209.256-.117.384-.323.384-.616 0-.228-.096-.583-.286-1.067l-1.408-3.697h-5.106l-.618 1.551c-.427 1.056-.641 1.893-.641 2.509 0 .557.172.946.515 1.166.344.22.863.341 1.557.363v.451a70.033 70.033 0 0 0-2.908-.066c-.717 0-1.312.022-1.785.066v-.451c.778-.125 1.45-.913 2.014-2.365L21.708.275c.252.022.523.033.813.033.305 0 .576-.011.813-.033l5.689 14.105c.206.499.439.86.698 1.083zM20.838 3.697l-2.427 6.084h4.751l-2.324-6.084zM47.028 15.282c.248.205.574.385.979.539v.451a93.408 93.408 0 0 0-3.663-.066c-1.031 0-2.023.022-2.977.066v-.451c.443-.022.76-.066.95-.132.191-.066.287-.169.287-.308 0-.125-.084-.315-.252-.572l-3.4-5.292a6.207 6.207 0 0 0-.555-.754 1.445 1.445 0 0 0-.475-.363 1.974 1.974 0 0 0-.607-.137v5.622c0 .564.042.975.126 1.232a.807.807 0 0 0 .481.528c.236.095.618.154 1.144.176v.451a72.086 72.086 0 0 0-3.537-.066c-1.679 0-2.911.022-3.697.066v-.451c.519-.022.897-.081 1.133-.176a.825.825 0 0 0 .487-.528c.087-.257.131-.668.131-1.232V2.707c0-.565-.044-.976-.131-1.233a.83.83 0 0 0-.487-.528c-.236-.095-.614-.154-1.133-.176V.319c.786.044 2.018.066 3.697.066 1.519 0 2.698-.022 3.537-.066V.77c-.526.022-.908.081-1.144.176a.811.811 0 0 0-.481.528c-.084.257-.126.668-.126 1.233v5.071a3.51 3.51 0 0 0 1.706-.55c.519-.33 1.106-.854 1.763-1.573l1.385-1.595c.709-.807 1.064-1.5 1.064-2.08a1.02 1.02 0 0 0-.452-.88c-.301-.212-.727-.33-1.276-.352V.319c1.152.044 2.312.066 3.48.066.9 0 1.633-.022 2.197-.066v.429c-1.236.272-2.369.994-3.399 2.168L40.852 6.26l5.46 8.186c.229.352.468.631.716.836zM64.936 15.282c.248.205.574.385.978.539v.451a93.335 93.335 0 0 0-3.663-.066c-1.03 0-2.022.022-2.976.066v-.451c.443-.022.759-.066.95-.132.191-.066.286-.169.286-.308 0-.125-.084-.315-.251-.572l-3.4-5.292a6.207 6.207 0 0 0-.555-.754 1.445 1.445 0 0 0-.475-.363 1.98 1.98 0 0 0-.607-.137v5.622c0 .564.042.975.126 1.232a.807.807 0 0 0 .481.528c.236.095.618.154 1.144.176v.451a72.086 72.086 0 0 0-3.537-.066c-1.679 0-2.911.022-3.697.066v-.451c.519-.022.896-.081 1.133-.176a.821.821 0 0 0 .486-.528c.088-.257.132-.668.132-1.232V2.707c0-.565-.044-.976-.132-1.233a.826.826 0 0 0-.486-.528C50.636.851 50.259.792 49.74.77V.319c.786.044 2.018.066 3.697.066 1.519 0 2.698-.022 3.537-.066V.77c-.526.022-.908.081-1.144.176a.811.811 0 0 0-.481.528c-.084.257-.126.668-.126 1.233v5.071a3.504 3.504 0 0 0 1.705-.55c.519-.33 1.107-.854 1.763-1.573l1.385-1.595c.71-.807 1.065-1.5 1.065-2.08a1.02 1.02 0 0 0-.452-.88c-.302-.212-.727-.33-1.277-.352V.319c1.153.044 2.313.066 3.48.066.901 0 1.633-.022 2.198-.066v.429c-1.236.272-2.369.994-3.4 2.168L58.76 6.26l5.46 8.186c.229.352.468.631.716.836z"/><g><path d="M130.05 16.283c-.485.205-1.067.308-1.746.308-.901 0-1.614-.183-2.141-.55-.526-.367-.87-.997-1.03-1.892l-.424-2.245c-.137-.726-.28-1.311-.429-1.755-.149-.443-.362-.795-.641-1.056-.278-.26-.647-.39-1.104-.39h-1.523v5.182c0 .564.042.975.126 1.232a.807.807 0 0 0 .481.528c.236.095.618.154 1.144.176v.451c-.831-.044-2.01-.066-3.537-.066-1.671 0-2.903.022-3.697.066v-.451c.519-.022.897-.081 1.133-.176a.825.825 0 0 0 .487-.528c.087-.257.131-.668.131-1.232V2.707c0-.565-.044-.976-.131-1.233a.83.83 0 0 0-.487-.528c-.236-.095-.614-.154-1.133-.176V.319c.794.044 1.98.066 3.56.066.626 0 1.32-.007 2.083-.022a93.88 93.88 0 0 1 1.591-.022c2.153 0 3.774.339 4.865 1.018 1.092.678 1.637 1.645 1.637 2.899 0 .667-.164 1.302-.492 1.903-.328.602-.885 1.124-1.671 1.568-.786.444-1.824.739-3.114.886h.023c.947.08 1.723.234 2.33.462.606.227 1.081.544 1.425.951.343.407.584.926.721 1.557l.538 2.322c.13.608.277 1.03.441 1.265a.795.795 0 0 0 .692.352c.183-.007.344-.051.481-.132.137-.081.29-.209.458-.385l.32.275c-.427.462-.883.796-1.367 1.001zm-5.976-8.516a2.482 2.482 0 0 0 1.019-1.298c.187-.543.28-1.195.28-1.958 0-1.232-.227-2.164-.681-2.795-.454-.63-1.196-.946-2.226-.946-.42 0-.731.053-.933.16-.202.106-.34.293-.412.561-.073.268-.109.673-.109 1.216v5.545h1.007c.878 0 1.563-.162 2.055-.485zM145.771.968a6.883 6.883 0 0 1 2.902 2.811c.687 1.229 1.03 2.69 1.03 4.385 0 1.657-.353 3.124-1.059 4.4a7.481 7.481 0 0 1-2.947 2.971c-1.26.704-2.691 1.056-4.293 1.056-1.656 0-3.108-.323-4.356-.968a6.84 6.84 0 0 1-2.896-2.811c-.683-1.229-1.024-2.69-1.024-4.384 0-1.658.351-3.125 1.053-4.401a7.443 7.443 0 0 1 2.942-2.971C138.382.352 139.817 0 141.427 0c1.648 0 3.096.323 4.344.968zm-6.708.446c-.653.671-1.156 1.606-1.511 2.805-.355 1.2-.532 2.573-.532 4.121 0 1.562.198 2.937.595 4.125.397 1.189.935 2.105 1.614 2.751.679.645 1.435.968 2.266.968.863 0 1.62-.335 2.273-1.007.652-.671 1.156-1.606 1.511-2.805s.532-2.573.532-4.12c0-1.555-.198-2.929-.595-4.121-.397-1.192-.937-2.11-1.62-2.756-.683-.645-1.437-.968-2.261-.968-.862 0-1.62.336-2.272 1.007zM158.653.946a.86.86 0 0 0-.526.528c-.096.257-.143.668-.143 1.233v11.442c0 .484.036.834.109 1.05a.669.669 0 0 0 .412.44c.202.078.52.116.955.116h1.145c.71 0 1.36-.209 1.952-.627.591-.418 1.087-1.007 1.488-1.766.401-.759.677-1.637.83-2.635h.538a23.018 23.018 0 0 0-.069 1.98c0 1.445.054 2.634.16 3.565-1.06-.044-2.85-.066-5.368-.066-3.404 0-5.949.022-7.635.066v-.451c.519-.022.896-.081 1.133-.176a.823.823 0 0 0 .486-.528c.088-.257.132-.668.132-1.232V2.707c0-.565-.044-.976-.132-1.233a.828.828 0 0 0-.486-.528c-.237-.095-.614-.154-1.133-.176V.319c.786.044 2.018.066 3.697.066 1.587 0 2.816-.022 3.686-.066V.77c-.565.022-.975.081-1.231.176zM174.146.946a.862.862 0 0 0-.527.528c-.095.257-.143.668-.143 1.233v11.442c0 .484.036.834.109 1.05.072.217.21.363.412.44.202.078.521.116.956.116h1.145c.709 0 1.36-.209 1.951-.627.592-.418 1.088-1.007 1.488-1.766.401-.759.678-1.637.83-2.635h.538a23.496 23.496 0 0 0-.068 1.98c0 1.445.053 2.634.16 3.565-1.061-.044-2.85-.066-5.369-.066-3.403 0-5.948.022-7.635.066v-.451c.519-.022.897-.081 1.133-.176a.825.825 0 0 0 .487-.528c.088-.257.131-.668.131-1.232V2.707c0-.565-.043-.976-.131-1.233a.83.83 0 0 0-.487-.528c-.236-.095-.614-.154-1.133-.176V.319c.786.044 2.019.066 3.697.066 1.588 0 2.816-.022 3.686-.066V.77c-.564.022-.974.081-1.23.176z"/></g><path d="M98.984.517a3.29 3.29 0 0 1 1.388 1.197c.338.519.506 1.132.506 1.839 0 .815-.229 1.523-.687 2.126-.459.603-1.068 1.087-1.829 1.453-.623.282-1.938.727-3.944 1.334.994.399 1.727.974 2.199 1.727.471.752.707 1.619.707 2.6 0 1.055-.327 2.051-.98 2.986s-1.593 1.689-2.822 2.263c-1.228.574-2.663.86-4.307.86-1.548 0-2.977-.259-4.287-.779-1.311-.52-2.357-1.261-3.14-2.226-.783-.964-1.174-2.082-1.174-3.354 0-1.122.29-2.07.869-2.843.58-.773 1.239-1.361 1.979-1.764.739-.403 1.425-.684 2.056-.842-.865-.357-1.527-.831-1.985-1.421-.458-.591-.688-1.214-.688-1.871 0-.565.173-1.091.519-1.577.346-.486.857-.877 1.531-1.172C85.57.758 86.383.61 87.334.61c1.185 0 2.106.258 2.763.773.329.258.576.543.74.854.164.312.246.614.246.904 0 .408-.151.736-.454.986a1.585 1.585 0 0 1-1.037.374c-.381 0-.708-.117-.98-.35-.272-.232-.409-.544-.409-.935a1.3 1.3 0 0 1 .396-.947c.264-.266.603-.416 1.018-.449-.077-.225-.302-.418-.674-.58-.372-.162-.822-.243-1.349-.243-.926 0-1.67.266-2.232.798-.562.532-.843 1.28-.843 2.244 0 1.139.45 2.108 1.349 2.906.614-.1 1.163-.15 1.648-.15.328 0 .588.05.778.15.19.099.286.245.286.436 0 .15-.067.268-.201.355-.135.088-.314.131-.539.131-.259 0-.536-.045-.83-.137a7.174 7.174 0 0 1-.74-.268 6.043 6.043 0 0 0-.376-.156c-2.3.657-3.451 2.053-3.451 4.19 0 1.139.312 2.124.934 2.955.623.831 1.475 1.465 2.556 1.901 1.081.437 2.292.655 3.633.655 1.262 0 2.426-.189 3.489-.567 1.064-.379 1.912-.923 2.543-1.634.632-.71.947-1.536.947-2.475 0-.665-.188-1.349-.564-2.051-.376-.702-1.079-1.253-2.108-1.652-1.574.474-2.595.798-3.062.972-.744.275-1.319.586-1.725.936-.407.349-.61.777-.61 1.284 0 .416.127.779.383 1.091.255.312.573.549.953.711a2.81 2.81 0 0 0 1.103.243c.303 0 .633-.05.992-.15.359-.1.56-.237.604-.411a1.8 1.8 0 0 1-.876-.399c-.247-.208-.37-.507-.37-.898 0-.399.138-.721.415-.966.277-.246.623-.368 1.038-.368.424 0 .766.127 1.025.38.259.254.389.588.389 1.004 0 .457-.16.852-.48 1.184a3.04 3.04 0 0 1-1.213.755 4.45 4.45 0 0 1-1.472.255 3.945 3.945 0 0 1-1.564-.324 2.924 2.924 0 0 1-1.245-.997c-.324-.449-.487-1.006-.487-1.671 0-.865.305-1.6.915-2.207.61-.607 1.529-1.114 2.757-1.521a69.037 69.037 0 0 1 2.004-.568c.991-.27 1.84-.513 2.55-.729a16.834 16.834 0 0 0 1.933-.711c.839-.382 1.429-.771 1.77-1.166.342-.395.513-.825.513-1.29 0-.474-.143-.909-.428-1.303A2.98 2.98 0 0 0 98.55.828a3.459 3.459 0 0 0-1.525-.342c-.449 0-.713.074-.791.224.233.116.415.285.545.505.129.22.194.447.194.68 0 .349-.147.644-.441.885a1.605 1.605 0 0 1-1.051.361c-.38 0-.709-.11-.986-.33-.276-.22-.415-.534-.415-.941 0-.416.147-.757.441-1.023a2.596 2.596 0 0 1 1.11-.573 5.357 5.357 0 0 1 1.368-.175c.735 0 1.397.139 1.985.418z"/></g></svg><svg width="199" height="25" fill-rule="evenodd" clip-rule="evenodd" stroke-linejoin="round" stroke-miterlimit="1.414" viewBox="-2 -2 199 25" id="logo-small-white" y="30"><g fill="#fff" fill-rule="nonzero"><path d="M6.596 1.014a.92.92 0 0 0-.565.566c-.102.276-.153.716-.153 1.321v12.266c0 .519.039.894.116 1.126.078.232.225.39.442.472.217.083.558.124 1.025.124h1.227c.761 0 1.458-.224 2.092-.672.634-.448 1.166-1.079 1.595-1.893.43-.814.726-1.756.89-2.825h.577a24.815 24.815 0 0 0-.074 2.123c0 1.549.057 2.823.172 3.821-1.137-.047-3.056-.07-5.755-.07-3.649 0-6.377.023-8.185.07v-.483c.556-.024.961-.087 1.215-.189a.886.886 0 0 0 .521-.566c.094-.275.141-.716.141-1.321V2.901c0-.605-.047-1.045-.141-1.321a.886.886 0 0 0-.521-.566C.961.912.556.849 0 .826V.342c.843.047 2.164.071 3.964.071 1.701 0 3.018-.024 3.951-.071v.484c-.606.023-1.045.086-1.319.188zM31.86 16.576c.278.24.557.368.835.384v.483a84.72 84.72 0 0 0-3.817-.07c-1.718 0-2.99.023-3.816.07v-.483c.63-.024 1.082-.099 1.356-.224.274-.126.411-.346.411-.661 0-.244-.102-.625-.307-1.144l-1.509-3.963H19.54l-.662 1.663c-.459 1.133-.688 2.029-.688 2.689 0 .598.185 1.015.553 1.251.368.235.924.365 1.668.389v.483a75.228 75.228 0 0 0-3.116-.07c-.769 0-1.407.023-1.915.07v-.483c.835-.134 1.555-.979 2.16-2.536L23.271.295c.27.023.56.035.871.035.327 0 .617-.012.871-.035l6.099 15.12c.221.534.47.922.748 1.161zM22.338 3.963l-2.601 6.522h5.092l-2.491-6.522zM50.413 16.382c.266.22.615.413 1.049.578v.483c-1.195-.047-2.503-.07-3.927-.07-1.104 0-2.168.023-3.19.07v-.483c.474-.024.814-.071 1.018-.142.205-.071.307-.181.307-.33 0-.134-.09-.338-.27-.613l-3.644-5.673a6.563 6.563 0 0 0-.596-.808 1.509 1.509 0 0 0-.509-.389 2.123 2.123 0 0 0-.65-.148v6.027c0 .605.045 1.046.135 1.321.09.275.262.464.515.566.254.102.663.165 1.227.189v.483c-.9-.047-2.164-.07-3.791-.07-1.8 0-3.121.023-3.964.07v-.483c.556-.024.961-.087 1.215-.189a.886.886 0 0 0 .521-.566c.094-.275.141-.716.141-1.321V2.901c0-.605-.047-1.045-.141-1.321a.886.886 0 0 0-.521-.566c-.254-.102-.659-.165-1.215-.188V.342c.843.047 2.164.071 3.964.071 1.627 0 2.891-.024 3.791-.071v.484c-.564.023-.973.086-1.227.188a.868.868 0 0 0-.515.566c-.09.276-.135.716-.135 1.321v5.437a3.772 3.772 0 0 0 1.828-.589c.556-.354 1.186-.916 1.89-1.687l1.485-1.71c.76-.865 1.141-1.608 1.141-2.229 0-.401-.162-.716-.485-.944-.323-.228-.779-.353-1.368-.377v-.46c1.235.047 2.479.071 3.73.071.966 0 1.751-.024 2.356-.071v.46c-1.325.291-2.54 1.065-3.644 2.323l-3.141 3.586 5.853 8.774c.245.378.501.677.767.897zM69.609 16.382c.266.22.616.413 1.05.578v.483c-1.195-.047-2.504-.07-3.927-.07-1.105 0-2.168.023-3.191.07v-.483c.475-.024.814-.071 1.019-.142.204-.071.307-.181.307-.33 0-.134-.09-.338-.27-.613l-3.645-5.673a6.47 6.47 0 0 0-.595-.808 1.518 1.518 0 0 0-.509-.389 2.13 2.13 0 0 0-.651-.148v6.027c0 .605.045 1.046.135 1.321.09.275.262.464.516.566.253.102.662.165 1.227.189v.483c-.9-.047-2.164-.07-3.792-.07-1.8 0-3.121.023-3.963.07v-.483c.556-.024.961-.087 1.215-.189a.886.886 0 0 0 .521-.566c.094-.275.141-.716.141-1.321V2.901c0-.605-.047-1.045-.141-1.321a.886.886 0 0 0-.521-.566c-.254-.102-.659-.165-1.215-.188V.342c.842.047 2.163.071 3.963.071 1.628 0 2.892-.024 3.792-.071v.484c-.565.023-.974.086-1.227.188a.867.867 0 0 0-.516.566c-.09.276-.135.716-.135 1.321v5.437a3.773 3.773 0 0 0 1.829-.589c.556-.354 1.186-.916 1.89-1.687l1.484-1.71c.761-.865 1.142-1.608 1.142-2.229 0-.401-.162-.716-.485-.944-.323-.228-.779-.353-1.368-.377v-.46a98.06 98.06 0 0 0 3.73.071c.965 0 1.751-.024 2.356-.071v.46c-1.325.291-2.54 1.065-3.644 2.323l-3.142 3.586 5.853 8.774c.246.378.501.677.767.897z"/><g><path d="M139.41 17.455c-.52.22-1.144.33-1.872.33-.965 0-1.73-.196-2.294-.589-.565-.394-.933-1.07-1.105-2.029l-.454-2.406c-.147-.778-.3-1.405-.46-1.881-.159-.476-.388-.853-.687-1.132-.299-.279-.693-.419-1.184-.419h-1.632v5.555c0 .605.045 1.046.135 1.321.09.275.262.464.515.566.254.102.663.165 1.227.189v.483c-.891-.047-2.155-.07-3.791-.07-1.792 0-3.113.023-3.964.07v-.483c.556-.024.961-.087 1.215-.189a.886.886 0 0 0 .521-.566c.094-.275.142-.716.142-1.321V2.901c0-.605-.048-1.045-.142-1.321a.886.886 0 0 0-.521-.566c-.254-.102-.659-.165-1.215-.188V.342c.851.047 2.123.071 3.816.071.671 0 1.416-.008 2.234-.024a99.537 99.537 0 0 1 1.705-.023c2.307 0 4.046.363 5.215 1.091 1.17.727 1.755 1.763 1.755 3.107 0 .716-.176 1.396-.527 2.041-.352.644-.949 1.205-1.792 1.68-.843.476-1.955.792-3.338.95h.025c1.014.086 1.847.251 2.497.495.65.244 1.16.584 1.528 1.02.368.437.626.993.773 1.669l.576 2.489c.14.652.297 1.104.473 1.356a.854.854 0 0 0 .742.377c.197-.008.368-.055.516-.141.147-.087.311-.224.491-.413l.343.295c-.458.495-.947.853-1.466 1.073zm-6.406-9.128a2.66 2.66 0 0 0 1.092-1.392c.201-.582.301-1.282.301-2.099 0-1.321-.243-2.32-.73-2.996-.487-.676-1.282-1.014-2.387-1.014-.45 0-.783.057-1 .171-.217.114-.364.314-.442.601-.077.287-.116.721-.116 1.303v5.944h1.08c.94 0 1.675-.172 2.202-.518zM156.263 1.038a7.37 7.37 0 0 1 3.11 3.013c.737 1.317 1.105 2.884 1.105 4.7 0 1.777-.379 3.35-1.135 4.718a8.026 8.026 0 0 1-3.16 3.184c-1.35.755-2.884 1.132-4.602 1.132-1.775 0-3.331-.346-4.669-1.038a7.328 7.328 0 0 1-3.104-3.013c-.733-1.317-1.099-2.884-1.099-4.7 0-1.777.377-3.349 1.129-4.717a7.982 7.982 0 0 1 3.154-3.185C148.342.377 149.88 0 151.606 0c1.767 0 3.319.346 4.657 1.038zm-7.191.478c-.7.719-1.239 1.721-1.62 3.007-.38 1.286-.57 2.758-.57 4.417 0 1.675.212 3.149.638 4.423.425 1.273 1.002 2.256 1.73 2.948.728.692 1.538 1.038 2.429 1.038.925 0 1.737-.36 2.436-1.079.7-.72 1.24-1.722 1.62-3.008.38-1.285.571-2.758.571-4.417 0-1.666-.213-3.139-.638-4.416-.426-1.278-1.005-2.263-1.737-2.955-.732-.692-1.54-1.038-2.423-1.038-.925 0-1.737.36-2.436 1.08zM170.072 1.014a.918.918 0 0 0-.564.566c-.102.276-.153.716-.153 1.321v12.266c0 .519.038.894.116 1.126.078.232.225.39.442.472.217.083.558.124 1.024.124h1.228c.76 0 1.458-.224 2.092-.672.634-.448 1.165-1.079 1.595-1.893.429-.814.726-1.756.89-2.825h.576a24.875 24.875 0 0 0-.073 2.123c0 1.549.057 2.823.172 3.821-1.138-.047-3.056-.07-5.756-.07-3.648 0-6.376.023-8.184.07v-.483c.556-.024.961-.087 1.215-.189a.886.886 0 0 0 .521-.566c.094-.275.141-.716.141-1.321V2.901c0-.605-.047-1.045-.141-1.321a.886.886 0 0 0-.521-.566c-.254-.102-.659-.165-1.215-.188V.342c.842.047 2.164.071 3.963.071 1.702 0 3.019-.024 3.951-.071v.484c-.605.023-1.045.086-1.319.188zM186.68 1.014a.922.922 0 0 0-.565.566c-.102.276-.153.716-.153 1.321v12.266c0 .519.039.894.117 1.126a.72.72 0 0 0 .441.472c.217.083.559.124 1.025.124h1.227c.761 0 1.458-.224 2.092-.672.634-.448 1.166-1.079 1.595-1.893.43-.814.726-1.756.89-2.825h.577a24.815 24.815 0 0 0-.074 2.123c0 1.549.057 2.823.172 3.821-1.137-.047-3.055-.07-5.755-.07-3.649 0-6.377.023-8.185.07v-.483c.557-.024.961-.087 1.215-.189a.888.888 0 0 0 .522-.566c.094-.275.141-.716.141-1.321V2.901c0-.605-.047-1.045-.141-1.321a.888.888 0 0 0-.522-.566c-.254-.102-.658-.165-1.215-.188V.342c.843.047 2.164.071 3.964.071 1.701 0 3.018-.024 3.951-.071v.484c-.605.023-1.045.086-1.319.188z"/></g><path d="M106.109.554c.63.298 1.126.726 1.488 1.283.361.557.542 1.214.542 1.972 0 .873-.246 1.633-.737 2.279-.492.646-1.145 1.165-1.961 1.557-.668.303-2.077.78-4.228 1.43 1.066.428 1.852 1.045 2.357 1.851.506.807.758 1.736.758 2.787 0 1.132-.35 2.199-1.05 3.202-.7 1.002-1.708 1.811-3.024 2.426-1.317.614-2.856.922-4.618.922-1.659 0-3.191-.279-4.596-.836-1.404-.557-2.526-1.352-3.365-2.386-.839-1.033-1.259-2.232-1.259-3.595 0-1.203.311-2.219.932-3.048.621-.828 1.328-1.459 2.121-1.891.792-.432 1.527-.733 2.204-.902-.927-.383-1.636-.891-2.128-1.524-.491-.633-.737-1.301-.737-2.005 0-.606.186-1.17.556-1.691.371-.521.918-.94 1.641-1.256C91.729.812 92.6.654 93.62.654c1.27 0 2.258.276 2.962.829.352.276.617.581.793.915.176.335.264.658.264.97 0 .436-.162.788-.487 1.056a1.7 1.7 0 0 1-1.112.401 1.56 1.56 0 0 1-1.05-.375c-.292-.249-.438-.583-.438-1.002 0-.392.141-.731.424-1.016.283-.285.647-.446 1.092-.481-.084-.241-.325-.448-.724-.622-.398-.174-.88-.26-1.446-.26-.992 0-1.789.285-2.392.855-.603.57-.904 1.372-.904 2.406 0 1.221.482 2.259 1.446 3.114.659-.107 1.247-.16 1.767-.16.352 0 .63.053.834.16.204.107.306.263.306.468a.432.432 0 0 1-.216.381c-.143.094-.336.14-.577.14-.278 0-.574-.049-.89-.147a7.582 7.582 0 0 1-.792-.287 5.87 5.87 0 0 0-.404-.167c-2.466.704-3.699 2.201-3.699 4.491 0 1.221.334 2.277 1.001 3.168.668.891 1.581 1.571 2.74 2.038 1.159.468 2.457.702 3.894.702 1.354 0 2.601-.203 3.741-.608 1.14-.406 2.049-.989 2.726-1.751a3.871 3.871 0 0 0 1.015-2.653c0-.713-.202-1.446-.605-2.199-.403-.753-1.157-1.343-2.26-1.771-1.687.508-2.781.855-3.282 1.042-.797.294-1.414.629-1.85 1.003-.435.374-.653.833-.653 1.377 0 .445.137.835.41 1.169.274.334.614.588 1.022.762.408.174.802.261 1.182.261.325 0 .679-.054 1.064-.161.385-.107.601-.254.647-.441a1.94 1.94 0 0 1-.939-.427c-.264-.223-.396-.544-.396-.963 0-.428.148-.773.445-1.036.297-.263.667-.394 1.112-.394.455 0 .821.136 1.099.408.278.271.417.63.417 1.076 0 .49-.171.913-.514 1.269a3.258 3.258 0 0 1-1.301.809 4.753 4.753 0 0 1-1.578.274 4.24 4.24 0 0 1-1.676-.347 3.15 3.15 0 0 1-1.335-1.07c-.348-.481-.521-1.078-.521-1.791 0-.927.326-1.715.98-2.366.654-.65 1.639-1.194 2.955-1.63a74.687 74.687 0 0 1 2.149-.609 96.527 96.527 0 0 0 2.733-.782c.76-.231 1.451-.485 2.072-.761.899-.41 1.532-.827 1.898-1.25.366-.423.549-.885.549-1.384 0-.508-.153-.973-.459-1.396a3.17 3.17 0 0 0-1.216-1.003 3.698 3.698 0 0 0-1.634-.368c-.483 0-.765.081-.849.241.251.125.445.305.584.541.139.237.209.479.209.729 0 .374-.158.691-.473.949a1.723 1.723 0 0 1-1.126.388c-.408 0-.761-.119-1.057-.355-.297-.236-.445-.572-.445-1.009 0-.445.157-.811.472-1.096.316-.285.712-.49 1.19-.615a5.808 5.808 0 0 1 1.467-.187c.788 0 1.497.149 2.128.448z"/></g></svg><svg width="37" height="19" fill-rule="evenodd" clip-rule="evenodd" stroke-linecap="round" stroke-linejoin="round" stroke-miterlimit="1.5" viewBox="-2 -2 37 19" id="mail" x="199" y="30"><g fill="none" stroke="#7f7f7f" stroke-width="2"><path d="M23.778 3.706h7.745M23.778 7.636h5.541M23.778 11.566h3.186"/><g><path d="M19.546 2.234a.939.939 0 0 0-.938-.939H2.829a.939.939 0 0 0-.938.939v10.805c0 .518.42.938.938.938h15.779c.518 0 .938-.42.938-.938V2.234z"/><path d="M2.172 1.57l8.547 8.308 8.556-8.298"/></g></g></svg><svg width="15" height="22" fill-rule="evenodd" clip-rule="evenodd" stroke-linejoin="round" stroke-miterlimit="1.414" viewBox="-2 -2 15 22" id="ok" x="227" y="78"><g fill="#333" fill-rule="nonzero"><path d="M9.375 8.775c-.566 0-1.699 1.133-3.965 1.133S2.011 8.775 1.444 8.775c-.625 0-1.133.508-1.133 1.133 0 .567.322.839.567.982.671.393 2.832 1.284 2.832 1.284l-2.407 3.081s-.425.53-.425.885c0 .625.507 1.133 1.133 1.133.578 0 .84-.372.84-.372s2.555-3.031 2.559-3.027c.004-.004 2.558 3.027 2.558 3.027s.262.372.841.372c.625 0 1.133-.508 1.133-1.133 0-.355-.425-.885-.425-.885l-2.408-3.081s2.162-.891 2.833-1.284c.245-.143.566-.415.566-.982 0-.625-.507-1.133-1.133-1.133zM5.41.277a3.966 3.966 0 1 0 0 7.933 3.966 3.966 0 0 0 0-7.933zm0 5.949a1.983 1.983 0 1 1 0-3.965 1.983 1.983 0 0 1 0 3.965z"/></g></svg><svg id="phone-black" width="24" height="24" viewBox="-2 -2 24 24" x="48" y="107"><style>.axst0{fill:#333}</style><path class="axst0" d="M15.2 20c-1.4 0-5.3-.5-10-5.1-4-4-5.5-7.1-5.1-10.5 0-.5.1-.9.3-1.4.1-.2.2-.5.3-.7l-.1-.1L2 .7C2.5.3 3.1 0 3.7 0c.7 0 1.3.2 1.7.7l2.8 2.8c.9.9.9 2.4 0 3.4l-1 .9c.5.8 1.1 1.8 2.1 2.9 1.1 1.1 2.1 1.7 2.9 2.1l.9-.9c.4-.4 1-.7 1.7-.7.6 0 1.2.2 1.7.7l2.8 2.8c.9.9.9 2.4 0 3.4l-1.4 1.4-.1-.1c-.2.1-.5.3-.7.4-.5.2-.9.3-1.4.4-.2-.2-.3-.2-.5-.2zM2.7 2.6l-.1.1c-.2.3-.4.6-.5 1-.1.3-.2.6-.2.9-.3 2.8 1 5.4 4.6 9 5 5 8.8 4.6 9 4.6.3 0 .6-.1.9-.2.3-.1.6-.3.9-.5l.1-.1.6-.6c.2-.2.2-.6 0-.8l-2.8-2.8c-.1-.2-.2-.2-.3-.2-.2 0-.3.1-.4.2l-1.9 1.9-.9-.5c-.9-.5-2.2-1.2-3.6-2.6C6.7 10.6 6 9.3 5.5 8.3L5 7.5l1.9-1.9c.2-.2.2-.6 0-.8L4.1 2c-.1-.2-.3-.2-.4-.2-.1 0-.3.1-.4.2l-.6.6z"/></svg><svg width="29" height="29" fill-rule="evenodd" clip-rule="evenodd" stroke-linejoin="round" stroke-miterlimit="1.414" viewBox="-2 -2 29 29" id="plus" y="78"><circle cx="12.427" cy="12.525" r="12" fill="#333"/><path d="M12.927 4.525a.5.5 0 0 1 .5.5v6.5h6.5a.5.5 0 0 1 .5.5v1a.5.5 0 0 1-.5.5h-6.5v6.5a.5.5 0 0 1-.5.5h-1a.5.5 0 0 1-.5-.5v-6.5h-6.5a.5.5 0 0 1-.5-.5v-1a.5.5 0 0 1 .5-.5h6.5v-6.5a.5.5 0 0 1 .5-.5h1z" fill="#fff"/></svg><svg width="27" height="27" viewBox="-2 -2 27 27" id="question" x="29" y="78"><defs><style>.azcls-1{stroke:#000101;stroke-linejoin:round;stroke-width:1px;fill-rule:evenodd}</style></defs><path id="azForma_1" data-name="Forma 1" class="azcls-1" d="M1274.62 437.066l11.65-.075a2.644 2.644 0 0 1 2.66 2.627l.06 8.456a2.646 2.646 0 0 1-2.63 2.66l-10.37.066-3.01 3.037a.531.531 0 0 1-.75 0 .548.548 0 0 1-.15-.366l-.09-13.742a2.645 2.645 0 0 1 2.63-2.663zm-1.49 15.121l2.26-2.282a.528.528 0 0 1 .37-.161l10.59-.067a1.591 1.591 0 0 0 1.58-1.6l-.06-8.457a1.581 1.581 0 0 0-1.59-1.575l-11.65.074a1.591 1.591 0 0 0-1.58 1.6z" transform="translate(-1269 -434)"/></svg><svg width="20" height="20" viewBox="-2 -2 20 20" id="reset-filter" x="41" y="131"><defs><style>.bacls-1{fill:#4a4a4a;fill-rule:evenodd}</style></defs><path id="baForma_1" data-name="Forma 1" class="bacls-1" d="M1289.59 694.717a.591.591 0 0 0-.72.146l-1.36 1.344a8.008 8.008 0 0 0-2.55-1.63 7.877 7.877 0 0 0-6.06.057 8.112 8.112 0 0 0-2.56 1.709 8.273 8.273 0 0 0-1.71 2.552 7.964 7.964 0 0 0 0 6.209 8.266 8.266 0 0 0 1.71 2.553 8.11 8.11 0 0 0 2.56 1.708 7.748 7.748 0 0 0 3.1.636 7.994 7.994 0 0 0 3.41-.755 7.911 7.911 0 0 0 2.75-2.131.4.4 0 0 0 .08-.234.329.329 0 0 0-.1-.214l-1.43-1.438a.4.4 0 0 0-.26-.093.328.328 0 0 0-.24.125 5.3 5.3 0 0 1-6.28 1.651 5.423 5.423 0 0 1-1.7-1.141 5.327 5.327 0 0 1-1.14-1.7 5.3 5.3 0 0 1 0-4.136 5.338 5.338 0 0 1 1.14-1.7 5.423 5.423 0 0 1 1.7-1.141 5.333 5.333 0 0 1 5.71 1l-1.44 1.438a.584.584 0 0 0-.15.718.633.633 0 0 0 .62.417h4.66a.625.625 0 0 0 .47-.2.613.613 0 0 0 .2-.467v-4.668a.616.616 0 0 0-.41-.615z" transform="translate(-1274 -694)"/></svg><svg width="20" height="17" viewBox="-2 -2 20 17" id="review-answer" x="20" y="152"><defs><style>.bbcls-1{fill:#070707;fill-rule:evenodd}</style></defs><path id="bbForma_1" data-name="Forma 1" class="bbcls-1" d="M249.664 1968.75a.621.621 0 0 1-.664-.65v-8.45a.621.621 0 0 1 .664-.65h1.328a.621.621 0 0 1 .664.65v6.17a.311.311 0 0 0 .331.33h7.37a.362.362 0 0 0 .265-.59l-.664-.65a.584.584 0 0 1-.2-.45.59.59 0 0 1 .2-.46l.93-.91a.663.663 0 0 1 .929 0l3.984 3.9a.7.7 0 0 1 .2.46.682.682 0 0 1-.2.45l-3.984 3.9a.639.639 0 0 1-.929 0l-.93-.91a.584.584 0 0 1-.2-.45.59.59 0 0 1 .2-.46l.664-.65a.346.346 0 0 0-.265-.58h-9.693z" transform="translate(-249 -1959)"/></svg><svg width="23" height="23" fill-rule="evenodd" clip-rule="evenodd" stroke-linecap="round" stroke-linejoin="round" stroke-miterlimit="1.5" viewBox="-2 -2 23 23" id="search" x="118" y="107"><g fill="none" stroke="#333" stroke-width="2"><path d="M13.436 13.424l4.05 3.894"/><circle cx="8.461" cy="8.371" r="7"/></g></svg><svg preserveAspectRatio="xMidYMid" width="22" height="22" viewBox="-2 -2 22 22" id="search-gray" x="221" y="107"><defs><style>.bdcls-2{fill:#333}</style></defs><path d="M7.004 14.009a6.88 6.88 0 0 0 4.473-1.631l5.435 5.436c.124.124.28.186.45.186a.639.639 0 0 0 .451-1.087l-5.436-5.436a6.99 6.99 0 0 0 1.631-4.473A7.006 7.006 0 0 0 7.004 0C3.153 0 0 3.153 0 7.004c0 3.867 3.153 7.005 7.004 7.005zm0-12.735a5.737 5.737 0 0 1 5.731 5.73 5.727 5.727 0 0 1-5.731 5.731 5.737 5.737 0 0 1-5.731-5.731c0-3.152 2.578-5.73 5.731-5.73z" id="bdpath-1" class="bdcls-2" fill-rule="evenodd"/></svg><svg width="23" height="23" fill-rule="evenodd" clip-rule="evenodd" stroke-linecap="round" stroke-linejoin="round" stroke-miterlimit="1.5" viewBox="-2 -2 23 23" id="search-white" x="95" y="107"><g fill="none" stroke="#fff" stroke-width="2"><path d="M13.436 13.424l4.05 3.894"/><circle cx="8.461" cy="8.371" r="7"/></g></svg><svg viewBox="-2 -2 28 20" fill-rule="evenodd" clip-rule="evenodd" stroke-linejoin="round" stroke-miterlimit="1.414" width="28" height="20" id="slon" x="185" y="55"><path d="M10.682 9.936c-.444-1.752-1.092-3.318.253-4.906 1.347-1.585 5.458-2.073 7.578-.082-1.651.931-2.387 2.917-1.732 4.675-.118 0 .88-.003-.353-.003s-3.482.014-5.746.316z" fill="#e4522f" fill-rule="nonzero"/><path d="M10.459 4.28c.34-.822.85-1.592 1.531-2.26 2.745-2.693 7.202-2.693 9.948 0a6.807 6.807 0 0 1 0 9.761 7.07 7.07 0 0 1-4.657 2.012c.083-.558.08-1.008.08-1.068a4.862 4.862 0 0 0 1.38-.944 4.645 4.645 0 0 0 1.396-3.312 4.647 4.647 0 0 0-1.396-3.313c-1.764-1.726-4.574-1.807-6.437-.282.911.41 1.765.982 2.515 1.718h.001a8.418 8.418 0 0 1 1.827 9.407 58.73 58.73 0 0 0-4.145-.412 5.69 5.69 0 0 0-.992-4.382 7.121 7.121 0 0 1-.23-.296 5.688 5.688 0 0 0-.409-.444c-2.298-2.254-6.031-2.254-8.331 0a5.716 5.716 0 0 0-1.549 5.499c-.093.01-.185.025-.28.036a8.42 8.42 0 0 1 1.828-9.407c2.151-2.108 5.149-2.879 7.92-2.313z" fill="#f8c52c"/><path d="M.989 15.947a5.71 5.71 0 0 1 1.551-5.482c2.271-2.225 5.931-2.254 8.24-.09a4.19 4.19 0 0 0-2.147 3.639c0 .509.091.993.262 1.443l-.387-.003c-2.547 0-5.058.169-7.519.493z" fill="#e4522f" fill-rule="nonzero"/></svg><svg width="16" height="15" fill-rule="evenodd" clip-rule="evenodd" stroke-linejoin="round" stroke-miterlimit="1.414" viewBox="-2 -2 16 15" id="star" x="106" y="152"><path d="M5.418.353a.491.491 0 0 1 .877 0l1.374 2.735 3.025.462a.49.49 0 0 1 .272.834L8.79 6.536l.495 3.02a.493.493 0 0 1-.71.516L5.856 8.667l-2.719 1.405a.49.49 0 0 1-.709-.516l.495-3.02L.747 4.384a.49.49 0 0 1 .271-.834l3.026-.462L5.418.353z" fill="#fff"/></svg><svg width="16" height="15" fill-rule="evenodd" clip-rule="evenodd" stroke-linejoin="round" stroke-miterlimit="1.414" viewBox="-2 -2 16 15" id="star-black" x="90" y="152"><path d="M5.418.353a.491.491 0 0 1 .877 0l1.374 2.735 3.025.462a.49.49 0 0 1 .272.834L8.79 6.536l.495 3.02a.493.493 0 0 1-.71.516L5.856 8.667l-2.719 1.405a.49.49 0 0 1-.709-.516l.495-3.02L.747 4.384a.49.49 0 0 1 .271-.834l3.026-.462L5.418.353z" fill="#333"/></svg><svg width="23" height="22" viewBox="-2 -2 23 22" id="star-empty" x="204" y="78"><defs><style>.bicls-1{fill:#333;fill-rule:evenodd}</style></defs><path id="biForma_1" data-name="Forma 1" class="bicls-1" d="M1046 4538.98a.6.6 0 0 0-.64-.53l-5.73-.82-2.57-5.16a.65.65 0 0 0-.56-.47.661.661 0 0 0-.56.47l-2.57 5.16-5.73.82a.6.6 0 0 0-.64.53.828.828 0 0 0 .29.54l4.15 4.01-.98 5.67a1.216 1.216 0 0 0-.02.23.655.655 0 0 0 .12.4.42.42 0 0 0 .36.17.968.968 0 0 0 .45-.14l5.13-2.67 5.13 2.67a.936.936 0 0 0 .45.14.462.462 0 0 0 .47-.57 1.484 1.484 0 0 0-.01-.23l-.98-5.67 4.14-4.01a.828.828 0 0 0 .3-.54zm-6.02 4.04l.82 4.78-4.3-2.26-4.32 2.26.84-4.78-3.5-3.36 4.82-.71 2.16-4.33 2.16 4.33 4.82.71z" transform="translate(-1027 -4532)"/></svg><svg width="16" height="15" fill-rule="evenodd" clip-rule="evenodd" stroke-linejoin="round" stroke-miterlimit="1.414" viewBox="-2 -2 16 15" id="star-gray" x="74" y="152"><path d="M5.418.353a.491.491 0 0 1 .877 0l1.374 2.735 3.025.462a.49.49 0 0 1 .272.834L8.79 6.536l.495 3.02a.493.493 0 0 1-.71.516L5.856 8.667l-2.719 1.405a.49.49 0 0 1-.709-.516l.495-3.02L.747 4.384a.49.49 0 0 1 .271-.834l3.026-.462L5.418.353z" fill="#f1f3ee"/></svg><svg width="16" height="15" fill-rule="evenodd" clip-rule="evenodd" stroke-linejoin="round" stroke-miterlimit="1.414" viewBox="-2 -2 16 15" id="star-pink" x="58" y="152"><path d="M5.418.353a.491.491 0 0 1 .877 0l1.374 2.735 3.025.462a.49.49 0 0 1 .272.834L8.79 6.536l.495 3.02a.493.493 0 0 1-.71.516L5.856 8.667l-2.719 1.405a.49.49 0 0 1-.709-.516l.495-3.02L.747 4.384a.49.49 0 0 1 .271-.834l3.026-.462L5.418.353z" fill="#ffc9cb"/></svg><svg id="user" width="24" height="24" viewBox="71.3 131 24 24" y="107"><style>.blst0{fill:#333}</style><path class="blst0" d="M86.6 145.2c1.8-1.1 3-3.1 3-5.4 0-3.5-2.8-6.3-6.3-6.3s-6.3 2.9-6.3 6.3c0 2.3 1.2 4.3 3 5.4-3.1 1.2-5.5 4-6.1 7.3h1.6c.8-3.7 4-6.3 7.9-6.3 3.9 0 7.1 2.7 7.9 6.3h1.6c-.8-3.4-3.1-6.2-6.3-7.3zm-8-5.4c0-2.6 2.1-4.8 4.7-4.8s4.7 2.1 4.7 4.8-2.1 4.8-4.7 4.8-4.7-2.2-4.7-4.8z"/><path class="blst0" d="M93.3 153h-2.5l-.1-.4c-.8-3.5-3.8-6-7.4-6-3.5 0-6.7 2.5-7.4 6l-.1.4h-2.5l.1-.6c.6-3.2 2.7-5.9 5.6-7.3-1.6-1.3-2.5-3.2-2.5-5.3 0-3.8 3-6.8 6.8-6.8 3.7 0 6.8 3.1 6.8 6.8 0 2.1-.9 4-2.5 5.3 2.9 1.3 5 4.1 5.6 7.3l.1.6zm-1.7-1h.6c-.7-3-2.9-5.4-5.7-6.4l-.9-.3.9-.5c1.7-1.1 2.8-2.9 2.8-5 0-3.2-2.6-5.9-5.8-5.9s-5.8 2.6-5.8 5.9c0 2.1 1 3.9 2.8 5l.8.5-.9.3c-2.8 1.1-5 3.5-5.7 6.4h.6c1-3.7 4.4-6.3 8.2-6.3 3.8 0 7.1 2.6 8.1 6.3zm-8.3-6.9c-2.9 0-5.2-2.3-5.2-5.2 0-2.9 2.3-5.2 5.2-5.2s5.2 2.3 5.2 5.2c0 2.8-2.3 5.2-5.2 5.2zm0-9.6c-2.3 0-4.2 1.9-4.2 4.3s1.9 4.3 4.2 4.3 4.2-1.9 4.2-4.3-1.8-4.3-4.2-4.3z"/></svg><svg width="24" height="24" viewBox="71.3 131 24 24" id="user-white" x="24" y="107"><style>.bmst0{fill:#fff}</style><path class="bmst0" d="M86.6 145.2c1.8-1.1 3-3.1 3-5.4 0-3.5-2.8-6.3-6.3-6.3s-6.3 2.9-6.3 6.3c0 2.3 1.2 4.3 3 5.4-3.1 1.2-5.5 4-6.1 7.3h1.6c.8-3.7 4-6.3 7.9-6.3 3.9 0 7.1 2.7 7.9 6.3h1.6c-.8-3.4-3.1-6.2-6.3-7.3zm-8-5.4c0-2.6 2.1-4.8 4.7-4.8s4.7 2.1 4.7 4.8-2.1 4.8-4.7 4.8-4.7-2.2-4.7-4.8z"/><path class="bmst0" d="M93.3 153h-2.5l-.1-.4c-.8-3.5-3.8-6-7.4-6-3.5 0-6.7 2.5-7.4 6l-.1.4h-2.5l.1-.6c.6-3.2 2.7-5.9 5.6-7.3-1.6-1.3-2.5-3.2-2.5-5.3 0-3.8 3-6.8 6.8-6.8 3.7 0 6.8 3.1 6.8 6.8 0 2.1-.9 4-2.5 5.3 2.9 1.3 5 4.1 5.6 7.3l.1.6zm-1.7-1h.6c-.7-3-2.9-5.4-5.7-6.4l-.9-.3.9-.5c1.7-1.1 2.8-2.9 2.8-5 0-3.2-2.6-5.9-5.8-5.9s-5.8 2.6-5.8 5.9c0 2.1 1 3.9 2.8 5l.8.5-.9.3c-2.8 1.1-5 3.5-5.7 6.4h.6c1-3.7 4.4-6.3 8.2-6.3 3.8 0 7.1 2.6 8.1 6.3zm-8.3-6.9c-2.9 0-5.2-2.3-5.2-5.2 0-2.9 2.3-5.2 5.2-5.2s5.2 2.3 5.2 5.2c0 2.8-2.3 5.2-5.2 5.2zm0-9.6c-2.3 0-4.2 1.9-4.2 4.3s1.9 4.3 4.2 4.3 4.2-1.9 4.2-4.3-1.8-4.3-4.2-4.3z"/></svg><svg width="19" height="20" viewBox="-2 -2 19 20" id="video-play" x="20" y="172"><defs><style>.bncls-1{fill:#333;fill-rule:evenodd}</style></defs><path id="bnForma_1" data-name="Forma 1" class="bncls-1" d="M285.723 1045.36c-1.5-.83-2.715-.15-2.715 1.51v12.26c0 1.66 1.216 2.33 2.715 1.51l11.144-6.14c1.5-.83 1.5-2.17 0-3z" transform="translate(-283 -1045)"/></svg><svg width="24" height="16" fill-rule="evenodd" clip-rule="evenodd" stroke-linejoin="round" stroke-miterlimit="1.414" viewBox="-2 -2 24 16" id="vk" x="213" y="55"><path d="M10.947 11.446c.63 0 .63-.908.63-1.261 0-.63.631-1.26 1.261-1.26.631 0 1.712 1.081 2.522 1.891.631.63.631.63 1.261.63h1.891s1.261-.047 1.261-1.261c0-.394-.431-1.062-1.891-2.521-1.261-1.261-1.908-.61 0-3.153 1.162-1.548 2.007-2.951 1.862-3.356-.138-.386-3.37-1.002-3.753-.427-1.261 1.892-1.493 2.355-1.892 3.153-.63 1.261-.693 1.891-1.261 1.891-.573 0-.63-1.224-.63-1.891 0-2.085.302-3.559-.631-3.783H9.686c-1.015 0-1.892.63-1.892.63s-.782.611-.63.631c.188.025 1.261-.261 1.261.63V3.25s.005 2.522-.631 2.522c-.63 0-1.891-2.522-3.152-4.413C4.147.617 4.011.728 3.381.728c-.676 0-1.26.027-1.892.027-.63 0-.711.401-.63.604C2.12 4.511 3.026 6.491 5.422 8.985c2.197 2.288 3.665 2.41 4.894 2.461.315.014 0 0 .631 0z" fill="#333"/></svg><svg width="23" height="23" fill-rule="evenodd" clip-rule="evenodd" stroke-linejoin="round" stroke-miterlimit="1.414" viewBox="-2 -2 23 23" id="yt" x="72" y="107"><g fill="#333" fill-rule="nonzero"><path d="M15.252 9.343H3.419A3.406 3.406 0 0 0 .014 12.75v2.737a3.406 3.406 0 0 0 3.405 3.406h11.833a3.407 3.407 0 0 0 3.406-3.406V12.75a3.407 3.407 0 0 0-3.406-3.407zm-9.347 2.131h-1.1v5.466H3.742v-5.466H2.643v-.93h3.262v.93zm3.108 5.466H8.07v-.517a2.037 2.037 0 0 1-.544.436c-.189.102-.371.15-.548.15-.219 0-.382-.069-.493-.211-.11-.141-.165-.35-.165-.632v-3.945h.942v3.62c0 .112.021.192.059.242.04.051.105.075.194.075a.537.537 0 0 0 .262-.099c.107-.067.204-.151.293-.254v-3.584h.943v4.719zm3.422-.974c0 .333-.074.589-.222.768-.147.179-.362.267-.64.267-.186 0-.351-.034-.494-.103a1.228 1.228 0 0 1-.404-.32v.362h-.954v-6.396h.954v2.06c.128-.143.263-.253.404-.327a.922.922 0 0 1 .436-.112c.298 0 .525.099.683.3.158.201.237.496.237.882v2.619zm3.271-1.272h-1.804v.889c0 .248.03.421.092.517.063.097.169.144.32.144.156 0 .265-.041.328-.122.06-.082.093-.261.093-.539v-.214h.971v.242c0 .483-.118.848-.356 1.094-.235.243-.588.364-1.058.364-.423 0-.757-.129-.999-.388-.241-.258-.364-.615-.364-1.07v-2.119c0-.408.134-.744.402-1.001.266-.258.609-.386 1.032-.386.432 0 .764.119.995.358.232.239.348.581.348 1.028v1.203z"/><path d="M14.323 12.93c-.151 0-.258.042-.323.13-.067.083-.098.225-.098.423v.477h.833v-.477c0-.198-.033-.34-.099-.423-.064-.088-.17-.13-.313-.13zM11.07 12.914a.477.477 0 0 0-.2.045.672.672 0 0 0-.194.145v2.939c.075.076.15.135.223.168a.546.546 0 0 0 .228.051c.116 0 .201-.034.255-.101.054-.067.081-.174.081-.325v-2.437c0-.16-.032-.28-.099-.363a.365.365 0 0 0-.294-.122zM4.969 7.704h1.195V4.781L7.555.657H6.34l-.739 2.817h-.076L4.749.657H3.545l1.424 4.255v2.792zM9.175 7.835c.482 0 .861-.127 1.137-.38.274-.254.411-.601.411-1.046V3.724c0-.396-.14-.722-.419-.973-.282-.25-.642-.377-1.081-.377-.483 0-.867.12-1.153.358-.285.238-.429.558-.429.962v2.695c0 .442.14.791.418 1.054.279.261.652.392 1.116.392zm-.441-4.18c0-.113.041-.204.121-.276a.47.47 0 0 1 .317-.104c.14 0 .254.034.34.104a.34.34 0 0 1 .129.276v2.832a.426.426 0 0 1-.127.328.478.478 0 0 1-.342.119c-.141 0-.249-.038-.325-.117a.457.457 0 0 1-.113-.33V3.655zM12.326 7.78c.2 0 .405-.057.616-.167.213-.111.417-.273.611-.485v.576h1.062V2.506h-1.062v3.946a1.447 1.447 0 0 1-.326.279.613.613 0 0 1-.297.109c-.1 0-.173-.027-.216-.084-.044-.054-.068-.143-.068-.265V2.506h-1.061V6.85c0 .31.063.542.186.695.125.156.309.235.555.235z"/></g></svg></svg>